solid component1:pipein
  facet normal 0.000000e+00 0.000000e+00 1.000000e+00
    outer loop
      vertex 7.821723e-03 4.938442e-02 0.000000e+00
      vertex 3.061617e-18 5.000000e-02 0.000000e+00
      vertex -7.821723e-03 4.938442e-02 0.000000e+00
    endloop
  endfacet
  facet normal 0.000000e+00 0.000000e+00 1.000000e+00
    outer loop
      vertex 7.821723e-03 -4.938442e-02 0.000000e+00
      vertex -7.821723e-03 -4.938442e-02 0.000000e+00
      vertex -9.184850e-18 -5.000000e-02 0.000000e+00
    endloop
  endfacet
  facet normal 0.000000e+00 0.000000e+00 1.000000e+00
    outer loop
      vertex 7.821723e-03 -4.938442e-02 0.000000e+00
      vertex -1.545085e-02 -4.755282e-02 0.000000e+00
      vertex -7.821723e-03 -4.938442e-02 0.000000e+00
    endloop
  endfacet
  facet normal 0.000000e+00 0.000000e+00 1.000000e+00
    outer loop
      vertex 1.545085e-02 -4.755282e-02 0.000000e+00
      vertex -1.545085e-02 -4.755282e-02 0.000000e+00
      vertex 7.821723e-03 -4.938442e-02 0.000000e+00
    endloop
  endfacet
  facet normal 0.000000e+00 0.000000e+00 1.000000e+00
    outer loop
      vertex 1.545085e-02 -4.755282e-02 0.000000e+00
      vertex -2.269953e-02 -4.455033e-02 0.000000e+00
      vertex -1.545085e-02 -4.755282e-02 0.000000e+00
    endloop
  endfacet
  facet normal 0.000000e+00 0.000000e+00 1.000000e+00
    outer loop
      vertex 2.269953e-02 -4.455033e-02 0.000000e+00
      vertex -2.269953e-02 -4.455033e-02 0.000000e+00
      vertex 1.545085e-02 -4.755282e-02 0.000000e+00
    endloop
  endfacet
  facet normal 0.000000e+00 0.000000e+00 1.000000e+00
    outer loop
      vertex 2.269953e-02 -4.455033e-02 0.000000e+00
      vertex -2.938926e-02 -4.045085e-02 0.000000e+00
      vertex -2.269953e-02 -4.455033e-02 0.000000e+00
    endloop
  endfacet
  facet normal 0.000000e+00 0.000000e+00 1.000000e+00
    outer loop
      vertex 2.938926e-02 -4.045085e-02 0.000000e+00
      vertex -2.938926e-02 -4.045085e-02 0.000000e+00
      vertex 2.269953e-02 -4.455033e-02 0.000000e+00
    endloop
  endfacet
  facet normal 0.000000e+00 0.000000e+00 1.000000e+00
    outer loop
      vertex 2.938926e-02 -4.045085e-02 0.000000e+00
      vertex -3.535534e-02 -3.535534e-02 0.000000e+00
      vertex -2.938926e-02 -4.045085e-02 0.000000e+00
    endloop
  endfacet
  facet normal 0.000000e+00 0.000000e+00 1.000000e+00
    outer loop
      vertex 3.535534e-02 -3.535534e-02 0.000000e+00
      vertex -3.535534e-02 -3.535534e-02 0.000000e+00
      vertex 2.938926e-02 -4.045085e-02 0.000000e+00
    endloop
  endfacet
  facet normal 0.000000e+00 0.000000e+00 1.000000e+00
    outer loop
      vertex 3.535534e-02 -3.535534e-02 0.000000e+00
      vertex -4.045085e-02 -2.938926e-02 0.000000e+00
      vertex -3.535534e-02 -3.535534e-02 0.000000e+00
    endloop
  endfacet
  facet normal 0.000000e+00 0.000000e+00 1.000000e+00
    outer loop
      vertex 4.045085e-02 -2.938926e-02 0.000000e+00
      vertex -4.045085e-02 -2.938926e-02 0.000000e+00
      vertex 3.535534e-02 -3.535534e-02 0.000000e+00
    endloop
  endfacet
  facet normal 0.000000e+00 0.000000e+00 1.000000e+00
    outer loop
      vertex 4.045085e-02 -2.938926e-02 0.000000e+00
      vertex -4.455033e-02 -2.269953e-02 0.000000e+00
      vertex -4.045085e-02 -2.938926e-02 0.000000e+00
    endloop
  endfacet
  facet normal 0.000000e+00 0.000000e+00 1.000000e+00
    outer loop
      vertex 4.455033e-02 -2.269953e-02 0.000000e+00
      vertex -4.455033e-02 -2.269953e-02 0.000000e+00
      vertex 4.045085e-02 -2.938926e-02 0.000000e+00
    endloop
  endfacet
  facet normal 0.000000e+00 0.000000e+00 1.000000e+00
    outer loop
      vertex 4.455033e-02 -2.269953e-02 0.000000e+00
      vertex -4.755282e-02 -1.545085e-02 0.000000e+00
      vertex -4.455033e-02 -2.269953e-02 0.000000e+00
    endloop
  endfacet
  facet normal 0.000000e+00 0.000000e+00 1.000000e+00
    outer loop
      vertex 4.755282e-02 -1.545085e-02 0.000000e+00
      vertex -4.755282e-02 -1.545085e-02 0.000000e+00
      vertex 4.455033e-02 -2.269953e-02 0.000000e+00
    endloop
  endfacet
  facet normal 0.000000e+00 0.000000e+00 1.000000e+00
    outer loop
      vertex 4.755282e-02 -1.545085e-02 0.000000e+00
      vertex -4.938442e-02 -7.821723e-03 0.000000e+00
      vertex -4.755282e-02 -1.545085e-02 0.000000e+00
    endloop
  endfacet
  facet normal 0.000000e+00 0.000000e+00 1.000000e+00
    outer loop
      vertex 4.938442e-02 -7.821723e-03 0.000000e+00
      vertex -4.938442e-02 -7.821723e-03 0.000000e+00
      vertex 4.755282e-02 -1.545085e-02 0.000000e+00
    endloop
  endfacet
  facet normal 0.000000e+00 0.000000e+00 1.000000e+00
    outer loop
      vertex 4.938442e-02 -7.821723e-03 0.000000e+00
      vertex -5.000000e-02 6.123234e-18 0.000000e+00
      vertex -4.938442e-02 -7.821723e-03 0.000000e+00
    endloop
  endfacet
  facet normal 0.000000e+00 0.000000e+00 1.000000e+00
    outer loop
      vertex 5.000000e-02 0.000000e+00 0.000000e+00
      vertex -5.000000e-02 6.123234e-18 0.000000e+00
      vertex 4.938442e-02 -7.821723e-03 0.000000e+00
    endloop
  endfacet
  facet normal 0.000000e+00 0.000000e+00 1.000000e+00
    outer loop
      vertex 5.000000e-02 0.000000e+00 0.000000e+00
      vertex -4.938442e-02 7.821723e-03 0.000000e+00
      vertex -5.000000e-02 6.123234e-18 0.000000e+00
    endloop
  endfacet
  facet normal 0.000000e+00 0.000000e+00 1.000000e+00
    outer loop
      vertex 4.938442e-02 7.821723e-03 0.000000e+00
      vertex -4.938442e-02 7.821723e-03 0.000000e+00
      vertex 5.000000e-02 0.000000e+00 0.000000e+00
    endloop
  endfacet
  facet normal 0.000000e+00 0.000000e+00 1.000000e+00
    outer loop
      vertex 4.938442e-02 7.821723e-03 0.000000e+00
      vertex -4.755282e-02 1.545085e-02 0.000000e+00
      vertex -4.938442e-02 7.821723e-03 0.000000e+00
    endloop
  endfacet
  facet normal 0.000000e+00 0.000000e+00 1.000000e+00
    outer loop
      vertex 4.755282e-02 1.545085e-02 0.000000e+00
      vertex -4.755282e-02 1.545085e-02 0.000000e+00
      vertex 4.938442e-02 7.821723e-03 0.000000e+00
    endloop
  endfacet
  facet normal 0.000000e+00 0.000000e+00 1.000000e+00
    outer loop
      vertex 4.755282e-02 1.545085e-02 0.000000e+00
      vertex -4.455033e-02 2.269953e-02 0.000000e+00
      vertex -4.755282e-02 1.545085e-02 0.000000e+00
    endloop
  endfacet
  facet normal 0.000000e+00 0.000000e+00 1.000000e+00
    outer loop
      vertex 4.455033e-02 2.269953e-02 0.000000e+00
      vertex -4.455033e-02 2.269953e-02 0.000000e+00
      vertex 4.755282e-02 1.545085e-02 0.000000e+00
    endloop
  endfacet
  facet normal 0.000000e+00 0.000000e+00 1.000000e+00
    outer loop
      vertex 4.455033e-02 2.269953e-02 0.000000e+00
      vertex -4.045085e-02 2.938926e-02 0.000000e+00
      vertex -4.455033e-02 2.269953e-02 0.000000e+00
    endloop
  endfacet
  facet normal 0.000000e+00 0.000000e+00 1.000000e+00
    outer loop
      vertex 4.045085e-02 2.938926e-02 0.000000e+00
      vertex -4.045085e-02 2.938926e-02 0.000000e+00
      vertex 4.455033e-02 2.269953e-02 0.000000e+00
    endloop
  endfacet
  facet normal 0.000000e+00 0.000000e+00 1.000000e+00
    outer loop
      vertex 4.045085e-02 2.938926e-02 0.000000e+00
      vertex -3.535534e-02 3.535534e-02 0.000000e+00
      vertex -4.045085e-02 2.938926e-02 0.000000e+00
    endloop
  endfacet
  facet normal 0.000000e+00 0.000000e+00 1.000000e+00
    outer loop
      vertex 3.535534e-02 3.535534e-02 0.000000e+00
      vertex -3.535534e-02 3.535534e-02 0.000000e+00
      vertex 4.045085e-02 2.938926e-02 0.000000e+00
    endloop
  endfacet
  facet normal 0.000000e+00 0.000000e+00 1.000000e+00
    outer loop
      vertex 3.535534e-02 3.535534e-02 0.000000e+00
      vertex -2.938926e-02 4.045085e-02 0.000000e+00
      vertex -3.535534e-02 3.535534e-02 0.000000e+00
    endloop
  endfacet
  facet normal 0.000000e+00 0.000000e+00 1.000000e+00
    outer loop
      vertex 2.938926e-02 4.045085e-02 0.000000e+00
      vertex -2.938926e-02 4.045085e-02 0.000000e+00
      vertex 3.535534e-02 3.535534e-02 0.000000e+00
    endloop
  endfacet
  facet normal 0.000000e+00 0.000000e+00 1.000000e+00
    outer loop
      vertex 2.938926e-02 4.045085e-02 0.000000e+00
      vertex -2.269953e-02 4.455033e-02 0.000000e+00
      vertex -2.938926e-02 4.045085e-02 0.000000e+00
    endloop
  endfacet
  facet normal 0.000000e+00 0.000000e+00 1.000000e+00
    outer loop
      vertex 2.269953e-02 4.455033e-02 0.000000e+00
      vertex -2.269953e-02 4.455033e-02 0.000000e+00
      vertex 2.938926e-02 4.045085e-02 0.000000e+00
    endloop
  endfacet
  facet normal 0.000000e+00 0.000000e+00 1.000000e+00
    outer loop
      vertex 2.269953e-02 4.455033e-02 0.000000e+00
      vertex -1.545085e-02 4.755282e-02 0.000000e+00
      vertex -2.269953e-02 4.455033e-02 0.000000e+00
    endloop
  endfacet
  facet normal 0.000000e+00 0.000000e+00 1.000000e+00
    outer loop
      vertex 1.545085e-02 4.755282e-02 0.000000e+00
      vertex -1.545085e-02 4.755282e-02 0.000000e+00
      vertex 2.269953e-02 4.455033e-02 0.000000e+00
    endloop
  endfacet
  facet normal 0.000000e+00 0.000000e+00 1.000000e+00
    outer loop
      vertex 1.545085e-02 4.755282e-02 0.000000e+00
      vertex -7.821723e-03 4.938442e-02 0.000000e+00
      vertex -1.545085e-02 4.755282e-02 0.000000e+00
    endloop
  endfacet
  facet normal 0.000000e+00 0.000000e+00 1.000000e+00
    outer loop
      vertex 7.821723e-03 4.938442e-02 0.000000e+00
      vertex -7.821723e-03 4.938442e-02 0.000000e+00
      vertex 1.545085e-02 4.755282e-02 0.000000e+00
    endloop
  endfacet
  facet normal 0.000000e+00 0.000000e+00 -1.000000e+00
    outer loop
      vertex 7.821723e-03 -4.938442e-02 -3.000000e-01
      vertex 3.061617e-18 -5.000000e-02 -3.000000e-01
      vertex -7.821723e-03 -4.938442e-02 -3.000000e-01
    endloop
  endfacet
  facet normal 0.000000e+00 0.000000e+00 -1.000000e+00
    outer loop
      vertex 7.821723e-03 4.938442e-02 -3.000000e-01
      vertex -7.821723e-03 4.938442e-02 -3.000000e-01
      vertex -9.184850e-18 5.000000e-02 -3.000000e-01
    endloop
  endfacet
  facet normal 0.000000e+00 0.000000e+00 -1.000000e+00
    outer loop
      vertex 7.821723e-03 4.938442e-02 -3.000000e-01
      vertex -1.545085e-02 4.755282e-02 -3.000000e-01
      vertex -7.821723e-03 4.938442e-02 -3.000000e-01
    endloop
  endfacet
  facet normal 0.000000e+00 0.000000e+00 -1.000000e+00
    outer loop
      vertex 1.545085e-02 4.755282e-02 -3.000000e-01
      vertex -1.545085e-02 4.755282e-02 -3.000000e-01
      vertex 7.821723e-03 4.938442e-02 -3.000000e-01
    endloop
  endfacet
  facet normal 0.000000e+00 0.000000e+00 -1.000000e+00
    outer loop
      vertex 1.545085e-02 4.755282e-02 -3.000000e-01
      vertex -2.269953e-02 4.455033e-02 -3.000000e-01
      vertex -1.545085e-02 4.755282e-02 -3.000000e-01
    endloop
  endfacet
  facet normal 0.000000e+00 0.000000e+00 -1.000000e+00
    outer loop
      vertex 2.269953e-02 4.455033e-02 -3.000000e-01
      vertex -2.269953e-02 4.455033e-02 -3.000000e-01
      vertex 1.545085e-02 4.755282e-02 -3.000000e-01
    endloop
  endfacet
  facet normal 0.000000e+00 0.000000e+00 -1.000000e+00
    outer loop
      vertex 2.269953e-02 4.455033e-02 -3.000000e-01
      vertex -2.938926e-02 4.045085e-02 -3.000000e-01
      vertex -2.269953e-02 4.455033e-02 -3.000000e-01
    endloop
  endfacet
  facet normal 0.000000e+00 0.000000e+00 -1.000000e+00
    outer loop
      vertex 2.938926e-02 4.045085e-02 -3.000000e-01
      vertex -2.938926e-02 4.045085e-02 -3.000000e-01
      vertex 2.269953e-02 4.455033e-02 -3.000000e-01
    endloop
  endfacet
  facet normal 0.000000e+00 0.000000e+00 -1.000000e+00
    outer loop
      vertex 2.938926e-02 4.045085e-02 -3.000000e-01
      vertex -3.535534e-02 3.535534e-02 -3.000000e-01
      vertex -2.938926e-02 4.045085e-02 -3.000000e-01
    endloop
  endfacet
  facet normal 0.000000e+00 0.000000e+00 -1.000000e+00
    outer loop
      vertex 3.535534e-02 3.535534e-02 -3.000000e-01
      vertex -3.535534e-02 3.535534e-02 -3.000000e-01
      vertex 2.938926e-02 4.045085e-02 -3.000000e-01
    endloop
  endfacet
  facet normal 0.000000e+00 0.000000e+00 -1.000000e+00
    outer loop
      vertex 3.535534e-02 3.535534e-02 -3.000000e-01
      vertex -4.045085e-02 2.938926e-02 -3.000000e-01
      vertex -3.535534e-02 3.535534e-02 -3.000000e-01
    endloop
  endfacet
  facet normal 0.000000e+00 0.000000e+00 -1.000000e+00
    outer loop
      vertex 4.045085e-02 2.938926e-02 -3.000000e-01
      vertex -4.045085e-02 2.938926e-02 -3.000000e-01
      vertex 3.535534e-02 3.535534e-02 -3.000000e-01
    endloop
  endfacet
  facet normal 0.000000e+00 0.000000e+00 -1.000000e+00
    outer loop
      vertex 4.045085e-02 2.938926e-02 -3.000000e-01
      vertex -4.455033e-02 2.269953e-02 -3.000000e-01
      vertex -4.045085e-02 2.938926e-02 -3.000000e-01
    endloop
  endfacet
  facet normal 0.000000e+00 0.000000e+00 -1.000000e+00
    outer loop
      vertex 4.455033e-02 2.269953e-02 -3.000000e-01
      vertex -4.455033e-02 2.269953e-02 -3.000000e-01
      vertex 4.045085e-02 2.938926e-02 -3.000000e-01
    endloop
  endfacet
  facet normal 0.000000e+00 0.000000e+00 -1.000000e+00
    outer loop
      vertex 4.455033e-02 2.269953e-02 -3.000000e-01
      vertex -4.755282e-02 1.545085e-02 -3.000000e-01
      vertex -4.455033e-02 2.269953e-02 -3.000000e-01
    endloop
  endfacet
  facet normal 0.000000e+00 0.000000e+00 -1.000000e+00
    outer loop
      vertex 4.755282e-02 1.545085e-02 -3.000000e-01
      vertex -4.755282e-02 1.545085e-02 -3.000000e-01
      vertex 4.455033e-02 2.269953e-02 -3.000000e-01
    endloop
  endfacet
  facet normal 0.000000e+00 0.000000e+00 -1.000000e+00
    outer loop
      vertex 4.755282e-02 1.545085e-02 -3.000000e-01
      vertex -4.938442e-02 7.821723e-03 -3.000000e-01
      vertex -4.755282e-02 1.545085e-02 -3.000000e-01
    endloop
  endfacet
  facet normal 0.000000e+00 0.000000e+00 -1.000000e+00
    outer loop
      vertex 4.938442e-02 7.821723e-03 -3.000000e-01
      vertex -4.938442e-02 7.821723e-03 -3.000000e-01
      vertex 4.755282e-02 1.545085e-02 -3.000000e-01
    endloop
  endfacet
  facet normal 0.000000e+00 0.000000e+00 -1.000000e+00
    outer loop
      vertex 4.938442e-02 7.821723e-03 -3.000000e-01
      vertex -5.000000e-02 -6.123234e-18 -3.000000e-01
      vertex -4.938442e-02 7.821723e-03 -3.000000e-01
    endloop
  endfacet
  facet normal 0.000000e+00 0.000000e+00 -1.000000e+00
    outer loop
      vertex 5.000000e-02 0.000000e+00 -3.000000e-01
      vertex -5.000000e-02 -6.123234e-18 -3.000000e-01
      vertex 4.938442e-02 7.821723e-03 -3.000000e-01
    endloop
  endfacet
  facet normal 0.000000e+00 0.000000e+00 -1.000000e+00
    outer loop
      vertex 5.000000e-02 0.000000e+00 -3.000000e-01
      vertex -4.938442e-02 -7.821723e-03 -3.000000e-01
      vertex -5.000000e-02 -6.123234e-18 -3.000000e-01
    endloop
  endfacet
  facet normal 0.000000e+00 0.000000e+00 -1.000000e+00
    outer loop
      vertex 4.938442e-02 -7.821723e-03 -3.000000e-01
      vertex -4.938442e-02 -7.821723e-03 -3.000000e-01
      vertex 5.000000e-02 0.000000e+00 -3.000000e-01
    endloop
  endfacet
  facet normal 0.000000e+00 0.000000e+00 -1.000000e+00
    outer loop
      vertex 4.938442e-02 -7.821723e-03 -3.000000e-01
      vertex -4.755282e-02 -1.545085e-02 -3.000000e-01
      vertex -4.938442e-02 -7.821723e-03 -3.000000e-01
    endloop
  endfacet
  facet normal 0.000000e+00 0.000000e+00 -1.000000e+00
    outer loop
      vertex 4.755282e-02 -1.545085e-02 -3.000000e-01
      vertex -4.755282e-02 -1.545085e-02 -3.000000e-01
      vertex 4.938442e-02 -7.821723e-03 -3.000000e-01
    endloop
  endfacet
  facet normal 0.000000e+00 0.000000e+00 -1.000000e+00
    outer loop
      vertex 4.755282e-02 -1.545085e-02 -3.000000e-01
      vertex -4.455033e-02 -2.269953e-02 -3.000000e-01
      vertex -4.755282e-02 -1.545085e-02 -3.000000e-01
    endloop
  endfacet
  facet normal 0.000000e+00 0.000000e+00 -1.000000e+00
    outer loop
      vertex 4.455033e-02 -2.269953e-02 -3.000000e-01
      vertex -4.455033e-02 -2.269953e-02 -3.000000e-01
      vertex 4.755282e-02 -1.545085e-02 -3.000000e-01
    endloop
  endfacet
  facet normal 0.000000e+00 0.000000e+00 -1.000000e+00
    outer loop
      vertex 4.455033e-02 -2.269953e-02 -3.000000e-01
      vertex -4.045085e-02 -2.938926e-02 -3.000000e-01
      vertex -4.455033e-02 -2.269953e-02 -3.000000e-01
    endloop
  endfacet
  facet normal 0.000000e+00 0.000000e+00 -1.000000e+00
    outer loop
      vertex 4.045085e-02 -2.938926e-02 -3.000000e-01
      vertex -4.045085e-02 -2.938926e-02 -3.000000e-01
      vertex 4.455033e-02 -2.269953e-02 -3.000000e-01
    endloop
  endfacet
  facet normal 0.000000e+00 0.000000e+00 -1.000000e+00
    outer loop
      vertex 4.045085e-02 -2.938926e-02 -3.000000e-01
      vertex -3.535534e-02 -3.535534e-02 -3.000000e-01
      vertex -4.045085e-02 -2.938926e-02 -3.000000e-01
    endloop
  endfacet
  facet normal 0.000000e+00 0.000000e+00 -1.000000e+00
    outer loop
      vertex 3.535534e-02 -3.535534e-02 -3.000000e-01
      vertex -3.535534e-02 -3.535534e-02 -3.000000e-01
      vertex 4.045085e-02 -2.938926e-02 -3.000000e-01
    endloop
  endfacet
  facet normal 0.000000e+00 0.000000e+00 -1.000000e+00
    outer loop
      vertex 3.535534e-02 -3.535534e-02 -3.000000e-01
      vertex -2.938926e-02 -4.045085e-02 -3.000000e-01
      vertex -3.535534e-02 -3.535534e-02 -3.000000e-01
    endloop
  endfacet
  facet normal 0.000000e+00 0.000000e+00 -1.000000e+00
    outer loop
      vertex 2.938926e-02 -4.045085e-02 -3.000000e-01
      vertex -2.938926e-02 -4.045085e-02 -3.000000e-01
      vertex 3.535534e-02 -3.535534e-02 -3.000000e-01
    endloop
  endfacet
  facet normal 0.000000e+00 0.000000e+00 -1.000000e+00
    outer loop
      vertex 2.938926e-02 -4.045085e-02 -3.000000e-01
      vertex -2.269953e-02 -4.455033e-02 -3.000000e-01
      vertex -2.938926e-02 -4.045085e-02 -3.000000e-01
    endloop
  endfacet
  facet normal 0.000000e+00 0.000000e+00 -1.000000e+00
    outer loop
      vertex 2.269953e-02 -4.455033e-02 -3.000000e-01
      vertex -2.269953e-02 -4.455033e-02 -3.000000e-01
      vertex 2.938926e-02 -4.045085e-02 -3.000000e-01
    endloop
  endfacet
  facet normal 0.000000e+00 0.000000e+00 -1.000000e+00
    outer loop
      vertex 2.269953e-02 -4.455033e-02 -3.000000e-01
      vertex -1.545085e-02 -4.755282e-02 -3.000000e-01
      vertex -2.269953e-02 -4.455033e-02 -3.000000e-01
    endloop
  endfacet
  facet normal 0.000000e+00 0.000000e+00 -1.000000e+00
    outer loop
      vertex 1.545085e-02 -4.755282e-02 -3.000000e-01
      vertex -1.545085e-02 -4.755282e-02 -3.000000e-01
      vertex 2.269953e-02 -4.455033e-02 -3.000000e-01
    endloop
  endfacet
  facet normal 0.000000e+00 0.000000e+00 -1.000000e+00
    outer loop
      vertex 1.545085e-02 -4.755282e-02 -3.000000e-01
      vertex -7.821723e-03 -4.938442e-02 -3.000000e-01
      vertex -1.545085e-02 -4.755282e-02 -3.000000e-01
    endloop
  endfacet
  facet normal 0.000000e+00 0.000000e+00 -1.000000e+00
    outer loop
      vertex 7.821723e-03 -4.938442e-02 -3.000000e-01
      vertex -7.821723e-03 -4.938442e-02 -3.000000e-01
      vertex 1.545085e-02 -4.755282e-02 -3.000000e-01
    endloop
  endfacet
  facet normal 9.917922e-01 1.042896e-01 0.000000e+00
    outer loop
      vertex 4.938442e-02 7.821723e-03 -3.000000e-01
      vertex 4.938442e-02 7.821723e-03 0.000000e+00
      vertex 5.000000e-02 0.000000e+00 0.000000e+00
    endloop
  endfacet
  facet normal 9.754778e-01 2.072953e-01 0.000000e+00
    outer loop
      vertex 4.755282e-02 1.545085e-02 -3.000000e-01
      vertex 4.938442e-02 7.821723e-03 0.000000e+00
      vertex 4.938442e-02 7.821723e-03 -3.000000e-01
    endloop
  endfacet
  facet normal 9.632671e-01 2.581562e-01 0.000000e+00
    outer loop
      vertex 4.755282e-02 1.545085e-02 -3.000000e-01
      vertex 4.755282e-02 1.545085e-02 0.000000e+00
      vertex 4.938442e-02 7.821723e-03 0.000000e+00
    endloop
  endfacet
  facet normal 9.310399e-01 3.573415e-01 0.000000e+00
    outer loop
      vertex 4.455033e-02 2.269953e-02 -3.000000e-01
      vertex 4.755282e-02 1.545085e-02 0.000000e+00
      vertex 4.755282e-02 1.545085e-02 -3.000000e-01
    endloop
  endfacet
  facet normal 9.110232e-01 4.056660e-01 0.000000e+00
    outer loop
      vertex 4.455033e-02 2.269953e-02 -3.000000e-01
      vertex 4.455033e-02 2.269953e-02 0.000000e+00
      vertex 4.755282e-02 1.545085e-02 0.000000e+00
    endloop
  endfacet
  facet normal 8.636767e-01 4.985887e-01 0.000000e+00
    outer loop
      vertex 4.045085e-02 2.938926e-02 -3.000000e-01
      vertex 4.455033e-02 2.269953e-02 0.000000e+00
      vertex 4.455033e-02 2.269953e-02 -3.000000e-01
    endloop
  endfacet
  facet normal 8.363469e-01 5.431870e-01 0.000000e+00
    outer loop
      vertex 4.045085e-02 2.938926e-02 -3.000000e-01
      vertex 4.045085e-02 2.938926e-02 0.000000e+00
      vertex 4.455033e-02 2.269953e-02 0.000000e+00
    endloop
  endfacet
  facet normal 7.750469e-01 6.275591e-01 0.000000e+00
    outer loop
      vertex 3.535534e-02 3.535534e-02 -3.000000e-01
      vertex 4.045085e-02 2.938926e-02 0.000000e+00
      vertex 4.045085e-02 2.938926e-02 -3.000000e-01
    endloop
  endfacet
  facet normal 7.410769e-01 6.673329e-01 0.000000e+00
    outer loop
      vertex 3.535534e-02 3.535534e-02 -3.000000e-01
      vertex 3.535534e-02 3.535534e-02 0.000000e+00
      vertex 4.045085e-02 2.938926e-02 0.000000e+00
    endloop
  endfacet
  facet normal 6.673329e-01 7.410769e-01 0.000000e+00
    outer loop
      vertex 2.938926e-02 4.045085e-02 -3.000000e-01
      vertex 3.535534e-02 3.535534e-02 0.000000e+00
      vertex 3.535534e-02 3.535534e-02 -3.000000e-01
    endloop
  endfacet
  facet normal 6.275591e-01 7.750469e-01 0.000000e+00
    outer loop
      vertex 2.938926e-02 4.045085e-02 -3.000000e-01
      vertex 2.938926e-02 4.045085e-02 0.000000e+00
      vertex 3.535534e-02 3.535534e-02 0.000000e+00
    endloop
  endfacet
  facet normal 5.431870e-01 8.363469e-01 0.000000e+00
    outer loop
      vertex 2.269953e-02 4.455033e-02 -3.000000e-01
      vertex 2.938926e-02 4.045085e-02 0.000000e+00
      vertex 2.938926e-02 4.045085e-02 -3.000000e-01
    endloop
  endfacet
  facet normal 4.985887e-01 8.636767e-01 0.000000e+00
    outer loop
      vertex 2.269953e-02 4.455033e-02 -3.000000e-01
      vertex 2.269953e-02 4.455033e-02 0.000000e+00
      vertex 2.938926e-02 4.045085e-02 0.000000e+00
    endloop
  endfacet
  facet normal 4.056660e-01 9.110232e-01 0.000000e+00
    outer loop
      vertex 1.545085e-02 4.755282e-02 -3.000000e-01
      vertex 2.269953e-02 4.455033e-02 0.000000e+00
      vertex 2.269953e-02 4.455033e-02 -3.000000e-01
    endloop
  endfacet
  facet normal 3.573415e-01 9.310399e-01 0.000000e+00
    outer loop
      vertex 1.545085e-02 4.755282e-02 -3.000000e-01
      vertex 1.545085e-02 4.755282e-02 0.000000e+00
      vertex 2.269953e-02 4.455033e-02 0.000000e+00
    endloop
  endfacet
  facet normal 2.581562e-01 9.632671e-01 0.000000e+00
    outer loop
      vertex 7.821723e-03 4.938442e-02 -3.000000e-01
      vertex 1.545085e-02 4.755282e-02 0.000000e+00
      vertex 1.545085e-02 4.755282e-02 -3.000000e-01
    endloop
  endfacet
  facet normal 2.072953e-01 9.754778e-01 0.000000e+00
    outer loop
      vertex 7.821723e-03 4.938442e-02 -3.000000e-01
      vertex 7.821723e-03 4.938442e-02 0.000000e+00
      vertex 1.545085e-02 4.755282e-02 0.000000e+00
    endloop
  endfacet
  facet normal 1.042896e-01 9.917922e-01 0.000000e+00
    outer loop
      vertex -9.184850e-18 5.000000e-02 -3.000000e-01
      vertex 7.821723e-03 4.938442e-02 0.000000e+00
      vertex 7.821723e-03 4.938442e-02 -3.000000e-01
    endloop
  endfacet
  facet normal 5.214482e-02 9.958961e-01 0.000000e+00
    outer loop
      vertex -9.184850e-18 5.000000e-02 -3.000000e-01
      vertex 3.061617e-18 5.000000e-02 0.000000e+00
      vertex 7.821723e-03 4.938442e-02 0.000000e+00
    endloop
  endfacet
  facet normal -5.214482e-02 9.958961e-01 0.000000e+00
    outer loop
      vertex -7.821723e-03 4.938442e-02 -3.000000e-01
      vertex 3.061617e-18 5.000000e-02 0.000000e+00
      vertex -9.184850e-18 5.000000e-02 -3.000000e-01
    endloop
  endfacet
  facet normal -1.042896e-01 9.917922e-01 0.000000e+00
    outer loop
      vertex -7.821723e-03 4.938442e-02 -3.000000e-01
      vertex -7.821723e-03 4.938442e-02 0.000000e+00
      vertex 3.061617e-18 5.000000e-02 0.000000e+00
    endloop
  endfacet
  facet normal -2.072953e-01 9.754778e-01 0.000000e+00
    outer loop
      vertex -1.545085e-02 4.755282e-02 -3.000000e-01
      vertex -7.821723e-03 4.938442e-02 0.000000e+00
      vertex -7.821723e-03 4.938442e-02 -3.000000e-01
    endloop
  endfacet
  facet normal -2.581562e-01 9.632671e-01 0.000000e+00
    outer loop
      vertex -1.545085e-02 4.755282e-02 -3.000000e-01
      vertex -1.545085e-02 4.755282e-02 0.000000e+00
      vertex -7.821723e-03 4.938442e-02 0.000000e+00
    endloop
  endfacet
  facet normal -3.573415e-01 9.310399e-01 0.000000e+00
    outer loop
      vertex -2.269953e-02 4.455033e-02 -3.000000e-01
      vertex -1.545085e-02 4.755282e-02 0.000000e+00
      vertex -1.545085e-02 4.755282e-02 -3.000000e-01
    endloop
  endfacet
  facet normal -4.056660e-01 9.110232e-01 0.000000e+00
    outer loop
      vertex -2.269953e-02 4.455033e-02 -3.000000e-01
      vertex -2.269953e-02 4.455033e-02 0.000000e+00
      vertex -1.545085e-02 4.755282e-02 0.000000e+00
    endloop
  endfacet
  facet normal -4.985887e-01 8.636767e-01 0.000000e+00
    outer loop
      vertex -2.938926e-02 4.045085e-02 -3.000000e-01
      vertex -2.269953e-02 4.455033e-02 0.000000e+00
      vertex -2.269953e-02 4.455033e-02 -3.000000e-01
    endloop
  endfacet
  facet normal -5.431870e-01 8.363469e-01 0.000000e+00
    outer loop
      vertex -2.938926e-02 4.045085e-02 -3.000000e-01
      vertex -2.938926e-02 4.045085e-02 0.000000e+00
      vertex -2.269953e-02 4.455033e-02 0.000000e+00
    endloop
  endfacet
  facet normal -6.275591e-01 7.750469e-01 0.000000e+00
    outer loop
      vertex -3.535534e-02 3.535534e-02 -3.000000e-01
      vertex -2.938926e-02 4.045085e-02 0.000000e+00
      vertex -2.938926e-02 4.045085e-02 -3.000000e-01
    endloop
  endfacet
  facet normal -6.673329e-01 7.410769e-01 0.000000e+00
    outer loop
      vertex -3.535534e-02 3.535534e-02 -3.000000e-01
      vertex -3.535534e-02 3.535534e-02 0.000000e+00
      vertex -2.938926e-02 4.045085e-02 0.000000e+00
    endloop
  endfacet
  facet normal -7.410769e-01 6.673329e-01 0.000000e+00
    outer loop
      vertex -4.045085e-02 2.938926e-02 -3.000000e-01
      vertex -3.535534e-02 3.535534e-02 0.000000e+00
      vertex -3.535534e-02 3.535534e-02 -3.000000e-01
    endloop
  endfacet
  facet normal -7.750469e-01 6.275591e-01 0.000000e+00
    outer loop
      vertex -4.045085e-02 2.938926e-02 -3.000000e-01
      vertex -4.045085e-02 2.938926e-02 0.000000e+00
      vertex -3.535534e-02 3.535534e-02 0.000000e+00
    endloop
  endfacet
  facet normal -8.363469e-01 5.431870e-01 0.000000e+00
    outer loop
      vertex -4.455033e-02 2.269953e-02 -3.000000e-01
      vertex -4.045085e-02 2.938926e-02 0.000000e+00
      vertex -4.045085e-02 2.938926e-02 -3.000000e-01
    endloop
  endfacet
  facet normal -8.636767e-01 4.985887e-01 0.000000e+00
    outer loop
      vertex -4.455033e-02 2.269953e-02 -3.000000e-01
      vertex -4.455033e-02 2.269953e-02 0.000000e+00
      vertex -4.045085e-02 2.938926e-02 0.000000e+00
    endloop
  endfacet
  facet normal -9.110232e-01 4.056660e-01 0.000000e+00
    outer loop
      vertex -4.755282e-02 1.545085e-02 -3.000000e-01
      vertex -4.455033e-02 2.269953e-02 0.000000e+00
      vertex -4.455033e-02 2.269953e-02 -3.000000e-01
    endloop
  endfacet
  facet normal -9.310399e-01 3.573415e-01 0.000000e+00
    outer loop
      vertex -4.755282e-02 1.545085e-02 -3.000000e-01
      vertex -4.755282e-02 1.545085e-02 0.000000e+00
      vertex -4.455033e-02 2.269953e-02 0.000000e+00
    endloop
  endfacet
  facet normal -9.632671e-01 2.581562e-01 0.000000e+00
    outer loop
      vertex -4.938442e-02 7.821723e-03 -3.000000e-01
      vertex -4.755282e-02 1.545085e-02 0.000000e+00
      vertex -4.755282e-02 1.545085e-02 -3.000000e-01
    endloop
  endfacet
  facet normal -9.754778e-01 2.072953e-01 0.000000e+00
    outer loop
      vertex -4.938442e-02 7.821723e-03 -3.000000e-01
      vertex -4.938442e-02 7.821723e-03 0.000000e+00
      vertex -4.755282e-02 1.545085e-02 0.000000e+00
    endloop
  endfacet
  facet normal -9.917922e-01 1.042896e-01 0.000000e+00
    outer loop
      vertex -5.000000e-02 -6.123234e-18 -3.000000e-01
      vertex -4.938442e-02 7.821723e-03 0.000000e+00
      vertex -4.938442e-02 7.821723e-03 -3.000000e-01
    endloop
  endfacet
  facet normal -9.958961e-01 5.214482e-02 0.000000e+00
    outer loop
      vertex -5.000000e-02 -6.123234e-18 -3.000000e-01
      vertex -5.000000e-02 6.123234e-18 0.000000e+00
      vertex -4.938442e-02 7.821723e-03 0.000000e+00
    endloop
  endfacet
  facet normal -9.958961e-01 -5.214482e-02 0.000000e+00
    outer loop
      vertex -4.938442e-02 -7.821723e-03 -3.000000e-01
      vertex -5.000000e-02 6.123234e-18 0.000000e+00
      vertex -5.000000e-02 -6.123234e-18 -3.000000e-01
    endloop
  endfacet
  facet normal -9.917922e-01 -1.042896e-01 0.000000e+00
    outer loop
      vertex -4.938442e-02 -7.821723e-03 -3.000000e-01
      vertex -4.938442e-02 -7.821723e-03 0.000000e+00
      vertex -5.000000e-02 6.123234e-18 0.000000e+00
    endloop
  endfacet
  facet normal -9.754778e-01 -2.072953e-01 0.000000e+00
    outer loop
      vertex -4.755282e-02 -1.545085e-02 -3.000000e-01
      vertex -4.938442e-02 -7.821723e-03 0.000000e+00
      vertex -4.938442e-02 -7.821723e-03 -3.000000e-01
    endloop
  endfacet
  facet normal -9.632671e-01 -2.581562e-01 0.000000e+00
    outer loop
      vertex -4.755282e-02 -1.545085e-02 -3.000000e-01
      vertex -4.755282e-02 -1.545085e-02 0.000000e+00
      vertex -4.938442e-02 -7.821723e-03 0.000000e+00
    endloop
  endfacet
  facet normal -9.310399e-01 -3.573415e-01 0.000000e+00
    outer loop
      vertex -4.455033e-02 -2.269953e-02 -3.000000e-01
      vertex -4.755282e-02 -1.545085e-02 0.000000e+00
      vertex -4.755282e-02 -1.545085e-02 -3.000000e-01
    endloop
  endfacet
  facet normal -9.110232e-01 -4.056660e-01 0.000000e+00
    outer loop
      vertex -4.455033e-02 -2.269953e-02 -3.000000e-01
      vertex -4.455033e-02 -2.269953e-02 0.000000e+00
      vertex -4.755282e-02 -1.545085e-02 0.000000e+00
    endloop
  endfacet
  facet normal -8.636767e-01 -4.985887e-01 0.000000e+00
    outer loop
      vertex -4.045085e-02 -2.938926e-02 -3.000000e-01
      vertex -4.455033e-02 -2.269953e-02 0.000000e+00
      vertex -4.455033e-02 -2.269953e-02 -3.000000e-01
    endloop
  endfacet
  facet normal -8.363469e-01 -5.431870e-01 0.000000e+00
    outer loop
      vertex -4.045085e-02 -2.938926e-02 -3.000000e-01
      vertex -4.045085e-02 -2.938926e-02 0.000000e+00
      vertex -4.455033e-02 -2.269953e-02 0.000000e+00
    endloop
  endfacet
  facet normal -7.750469e-01 -6.275591e-01 0.000000e+00
    outer loop
      vertex -3.535534e-02 -3.535534e-02 -3.000000e-01
      vertex -4.045085e-02 -2.938926e-02 0.000000e+00
      vertex -4.045085e-02 -2.938926e-02 -3.000000e-01
    endloop
  endfacet
  facet normal -7.410769e-01 -6.673329e-01 0.000000e+00
    outer loop
      vertex -3.535534e-02 -3.535534e-02 -3.000000e-01
      vertex -3.535534e-02 -3.535534e-02 0.000000e+00
      vertex -4.045085e-02 -2.938926e-02 0.000000e+00
    endloop
  endfacet
  facet normal -6.673329e-01 -7.410769e-01 0.000000e+00
    outer loop
      vertex -2.938926e-02 -4.045085e-02 -3.000000e-01
      vertex -3.535534e-02 -3.535534e-02 0.000000e+00
      vertex -3.535534e-02 -3.535534e-02 -3.000000e-01
    endloop
  endfacet
  facet normal -6.275591e-01 -7.750469e-01 0.000000e+00
    outer loop
      vertex -2.938926e-02 -4.045085e-02 -3.000000e-01
      vertex -2.938926e-02 -4.045085e-02 0.000000e+00
      vertex -3.535534e-02 -3.535534e-02 0.000000e+00
    endloop
  endfacet
  facet normal -5.431870e-01 -8.363469e-01 0.000000e+00
    outer loop
      vertex -2.269953e-02 -4.455033e-02 -3.000000e-01
      vertex -2.938926e-02 -4.045085e-02 0.000000e+00
      vertex -2.938926e-02 -4.045085e-02 -3.000000e-01
    endloop
  endfacet
  facet normal -4.985887e-01 -8.636767e-01 0.000000e+00
    outer loop
      vertex -2.269953e-02 -4.455033e-02 -3.000000e-01
      vertex -2.269953e-02 -4.455033e-02 0.000000e+00
      vertex -2.938926e-02 -4.045085e-02 0.000000e+00
    endloop
  endfacet
  facet normal -4.056660e-01 -9.110232e-01 0.000000e+00
    outer loop
      vertex -1.545085e-02 -4.755282e-02 -3.000000e-01
      vertex -2.269953e-02 -4.455033e-02 0.000000e+00
      vertex -2.269953e-02 -4.455033e-02 -3.000000e-01
    endloop
  endfacet
  facet normal -3.573415e-01 -9.310399e-01 0.000000e+00
    outer loop
      vertex -1.545085e-02 -4.755282e-02 -3.000000e-01
      vertex -1.545085e-02 -4.755282e-02 0.000000e+00
      vertex -2.269953e-02 -4.455033e-02 0.000000e+00
    endloop
  endfacet
  facet normal -2.581562e-01 -9.632671e-01 0.000000e+00
    outer loop
      vertex -7.821723e-03 -4.938442e-02 -3.000000e-01
      vertex -1.545085e-02 -4.755282e-02 0.000000e+00
      vertex -1.545085e-02 -4.755282e-02 -3.000000e-01
    endloop
  endfacet
  facet normal -2.072953e-01 -9.754778e-01 0.000000e+00
    outer loop
      vertex -7.821723e-03 -4.938442e-02 -3.000000e-01
      vertex -7.821723e-03 -4.938442e-02 0.000000e+00
      vertex -1.545085e-02 -4.755282e-02 0.000000e+00
    endloop
  endfacet
  facet normal -1.042896e-01 -9.917922e-01 0.000000e+00
    outer loop
      vertex 3.061617e-18 -5.000000e-02 -3.000000e-01
      vertex -7.821723e-03 -4.938442e-02 0.000000e+00
      vertex -7.821723e-03 -4.938442e-02 -3.000000e-01
    endloop
  endfacet
  facet normal -5.214482e-02 -9.958961e-01 0.000000e+00
    outer loop
      vertex 3.061617e-18 -5.000000e-02 -3.000000e-01
      vertex -9.184850e-18 -5.000000e-02 0.000000e+00
      vertex -7.821723e-03 -4.938442e-02 0.000000e+00
    endloop
  endfacet
  facet normal 5.214482e-02 -9.958961e-01 0.000000e+00
    outer loop
      vertex 7.821723e-03 -4.938442e-02 -3.000000e-01
      vertex -9.184850e-18 -5.000000e-02 0.000000e+00
      vertex 3.061617e-18 -5.000000e-02 -3.000000e-01
    endloop
  endfacet
  facet normal 1.042896e-01 -9.917922e-01 0.000000e+00
    outer loop
      vertex 7.821723e-03 -4.938442e-02 -3.000000e-01
      vertex 7.821723e-03 -4.938442e-02 0.000000e+00
      vertex -9.184850e-18 -5.000000e-02 0.000000e+00
    endloop
  endfacet
  facet normal 2.072953e-01 -9.754778e-01 0.000000e+00
    outer loop
      vertex 1.545085e-02 -4.755282e-02 -3.000000e-01
      vertex 7.821723e-03 -4.938442e-02 0.000000e+00
      vertex 7.821723e-03 -4.938442e-02 -3.000000e-01
    endloop
  endfacet
  facet normal 2.581562e-01 -9.632671e-01 0.000000e+00
    outer loop
      vertex 1.545085e-02 -4.755282e-02 -3.000000e-01
      vertex 1.545085e-02 -4.755282e-02 0.000000e+00
      vertex 7.821723e-03 -4.938442e-02 0.000000e+00
    endloop
  endfacet
  facet normal 3.573415e-01 -9.310399e-01 0.000000e+00
    outer loop
      vertex 2.269953e-02 -4.455033e-02 -3.000000e-01
      vertex 1.545085e-02 -4.755282e-02 0.000000e+00
      vertex 1.545085e-02 -4.755282e-02 -3.000000e-01
    endloop
  endfacet
  facet normal 4.056660e-01 -9.110232e-01 0.000000e+00
    outer loop
      vertex 2.269953e-02 -4.455033e-02 -3.000000e-01
      vertex 2.269953e-02 -4.455033e-02 0.000000e+00
      vertex 1.545085e-02 -4.755282e-02 0.000000e+00
    endloop
  endfacet
  facet normal 4.985887e-01 -8.636767e-01 0.000000e+00
    outer loop
      vertex 2.938926e-02 -4.045085e-02 -3.000000e-01
      vertex 2.269953e-02 -4.455033e-02 0.000000e+00
      vertex 2.269953e-02 -4.455033e-02 -3.000000e-01
    endloop
  endfacet
  facet normal 5.431870e-01 -8.363469e-01 0.000000e+00
    outer loop
      vertex 2.938926e-02 -4.045085e-02 -3.000000e-01
      vertex 2.938926e-02 -4.045085e-02 0.000000e+00
      vertex 2.269953e-02 -4.455033e-02 0.000000e+00
    endloop
  endfacet
  facet normal 6.275591e-01 -7.750469e-01 0.000000e+00
    outer loop
      vertex 3.535534e-02 -3.535534e-02 -3.000000e-01
      vertex 2.938926e-02 -4.045085e-02 0.000000e+00
      vertex 2.938926e-02 -4.045085e-02 -3.000000e-01
    endloop
  endfacet
  facet normal 6.673329e-01 -7.410769e-01 0.000000e+00
    outer loop
      vertex 3.535534e-02 -3.535534e-02 -3.000000e-01
      vertex 3.535534e-02 -3.535534e-02 0.000000e+00
      vertex 2.938926e-02 -4.045085e-02 0.000000e+00
    endloop
  endfacet
  facet normal 7.410769e-01 -6.673329e-01 0.000000e+00
    outer loop
      vertex 4.045085e-02 -2.938926e-02 -3.000000e-01
      vertex 3.535534e-02 -3.535534e-02 0.000000e+00
      vertex 3.535534e-02 -3.535534e-02 -3.000000e-01
    endloop
  endfacet
  facet normal 7.750469e-01 -6.275591e-01 0.000000e+00
    outer loop
      vertex 4.045085e-02 -2.938926e-02 -3.000000e-01
      vertex 4.045085e-02 -2.938926e-02 0.000000e+00
      vertex 3.535534e-02 -3.535534e-02 0.000000e+00
    endloop
  endfacet
  facet normal 8.363469e-01 -5.431870e-01 0.000000e+00
    outer loop
      vertex 4.455033e-02 -2.269953e-02 -3.000000e-01
      vertex 4.045085e-02 -2.938926e-02 0.000000e+00
      vertex 4.045085e-02 -2.938926e-02 -3.000000e-01
    endloop
  endfacet
  facet normal 8.636767e-01 -4.985887e-01 0.000000e+00
    outer loop
      vertex 4.455033e-02 -2.269953e-02 -3.000000e-01
      vertex 4.455033e-02 -2.269953e-02 0.000000e+00
      vertex 4.045085e-02 -2.938926e-02 0.000000e+00
    endloop
  endfacet
  facet normal 9.110232e-01 -4.056660e-01 0.000000e+00
    outer loop
      vertex 4.755282e-02 -1.545085e-02 -3.000000e-01
      vertex 4.455033e-02 -2.269953e-02 0.000000e+00
      vertex 4.455033e-02 -2.269953e-02 -3.000000e-01
    endloop
  endfacet
  facet normal 9.310399e-01 -3.573415e-01 0.000000e+00
    outer loop
      vertex 4.755282e-02 -1.545085e-02 -3.000000e-01
      vertex 4.755282e-02 -1.545085e-02 0.000000e+00
      vertex 4.455033e-02 -2.269953e-02 0.000000e+00
    endloop
  endfacet
  facet normal 9.632671e-01 -2.581562e-01 0.000000e+00
    outer loop
      vertex 4.938442e-02 -7.821723e-03 -3.000000e-01
      vertex 4.755282e-02 -1.545085e-02 0.000000e+00
      vertex 4.755282e-02 -1.545085e-02 -3.000000e-01
    endloop
  endfacet
  facet normal 9.754778e-01 -2.072953e-01 0.000000e+00
    outer loop
      vertex 4.938442e-02 -7.821723e-03 -3.000000e-01
      vertex 4.938442e-02 -7.821723e-03 0.000000e+00
      vertex 4.755282e-02 -1.545085e-02 0.000000e+00
    endloop
  endfacet
  facet normal 9.917922e-01 -1.042896e-01 0.000000e+00
    outer loop
      vertex 5.000000e-02 0.000000e+00 -3.000000e-01
      vertex 4.938442e-02 -7.821723e-03 0.000000e+00
      vertex 4.938442e-02 -7.821723e-03 -3.000000e-01
    endloop
  endfacet
  facet normal 9.958961e-01 -5.214482e-02 0.000000e+00
    outer loop
      vertex 5.000000e-02 0.000000e+00 -3.000000e-01
      vertex 5.000000e-02 0.000000e+00 0.000000e+00
      vertex 4.938442e-02 -7.821723e-03 0.000000e+00
    endloop
  endfacet
  facet normal 9.958961e-01 5.214482e-02 0.000000e+00
    outer loop
      vertex 4.938442e-02 7.821723e-03 -3.000000e-01
      vertex 5.000000e-02 0.000000e+00 0.000000e+00
      vertex 5.000000e-02 0.000000e+00 -3.000000e-01
    endloop
  endfacet
endsolid component1:pipein
