solid component1:taper
  facet normal 0.000000e+00 0.000000e+00 1.000000e+00
    outer loop
      vertex 6.366180e-03 -1.498648e-01 1.000000e-03
      vertex -1.905267e-02 -1.487851e-01 1.000000e-03
      vertex -6.366180e-03 -1.498648e-01 1.000000e-03
    endloop
  endfacet
  facet normal 0.000000e+00 0.000000e+00 1.000000e+00
    outer loop
      vertex 1.905267e-02 -1.487851e-01 1.000000e-03
      vertex -1.905267e-02 -1.487851e-01 1.000000e-03
      vertex 6.366180e-03 -1.498648e-01 1.000000e-03
    endloop
  endfacet
  facet normal 0.000000e+00 0.000000e+00 1.000000e+00
    outer loop
      vertex 1.905267e-02 -1.487851e-01 1.000000e-03
      vertex -3.160189e-02 -1.466333e-01 1.000000e-03
      vertex -1.905267e-02 -1.487851e-01 1.000000e-03
    endloop
  endfacet
  facet normal 0.000000e+00 0.000000e+00 1.000000e+00
    outer loop
      vertex 3.160189e-02 -1.466333e-01 1.000000e-03
      vertex -3.160189e-02 -1.466333e-01 1.000000e-03
      vertex 1.905267e-02 -1.487851e-01 1.000000e-03
    endloop
  endfacet
  facet normal 0.000000e+00 0.000000e+00 1.000000e+00
    outer loop
      vertex 3.160189e-02 -1.466333e-01 1.000000e-03
      vertex -4.392342e-02 -1.434250e-01 1.000000e-03
      vertex -3.160189e-02 -1.466333e-01 1.000000e-03
    endloop
  endfacet
  facet normal 0.000000e+00 0.000000e+00 1.000000e+00
    outer loop
      vertex 4.392342e-02 -1.434250e-01 1.000000e-03
      vertex -4.392342e-02 -1.434250e-01 1.000000e-03
      vertex 3.160189e-02 -1.466333e-01 1.000000e-03
    endloop
  endfacet
  facet normal 0.000000e+00 0.000000e+00 1.000000e+00
    outer loop
      vertex 4.392342e-02 -1.434250e-01 1.000000e-03
      vertex -5.592847e-02 -1.391833e-01 1.000000e-03
      vertex -4.392342e-02 -1.434250e-01 1.000000e-03
    endloop
  endfacet
  facet normal 0.000000e+00 0.000000e+00 1.000000e+00
    outer loop
      vertex 5.592847e-02 -1.391833e-01 1.000000e-03
      vertex -5.592847e-02 -1.391833e-01 1.000000e-03
      vertex 4.392342e-02 -1.434250e-01 1.000000e-03
    endloop
  endfacet
  facet normal 0.000000e+00 0.000000e+00 1.000000e+00
    outer loop
      vertex 5.592847e-02 -1.391833e-01 1.000000e-03
      vertex -6.753056e-02 -1.339389e-01 1.000000e-03
      vertex -5.592847e-02 -1.391833e-01 1.000000e-03
    endloop
  endfacet
  facet normal 0.000000e+00 0.000000e+00 1.000000e+00
    outer loop
      vertex 6.753056e-02 -1.339389e-01 1.000000e-03
      vertex -6.753056e-02 -1.339389e-01 1.000000e-03
      vertex 5.592847e-02 -1.391833e-01 1.000000e-03
    endloop
  endfacet
  facet normal 0.000000e+00 0.000000e+00 1.000000e+00
    outer loop
      vertex 6.753056e-02 -1.339389e-01 1.000000e-03
      vertex -7.864609e-02 -1.277294e-01 1.000000e-03
      vertex -6.753056e-02 -1.339389e-01 1.000000e-03
    endloop
  endfacet
  facet normal 0.000000e+00 0.000000e+00 1.000000e+00
    outer loop
      vertex 7.864609e-02 -1.277294e-01 1.000000e-03
      vertex -7.864609e-02 -1.277294e-01 1.000000e-03
      vertex 6.753056e-02 -1.339389e-01 1.000000e-03
    endloop
  endfacet
  facet normal 0.000000e+00 0.000000e+00 1.000000e+00
    outer loop
      vertex 7.864609e-02 -1.277294e-01 1.000000e-03
      vertex -8.919497e-02 -1.205996e-01 1.000000e-03
      vertex -7.864609e-02 -1.277294e-01 1.000000e-03
    endloop
  endfacet
  facet normal 0.000000e+00 0.000000e+00 1.000000e+00
    outer loop
      vertex 8.919497e-02 -1.205996e-01 1.000000e-03
      vertex -8.919497e-02 -1.205996e-01 1.000000e-03
      vertex 7.864609e-02 -1.277294e-01 1.000000e-03
    endloop
  endfacet
  facet normal 0.000000e+00 0.000000e+00 1.000000e+00
    outer loop
      vertex 8.919497e-02 -1.205996e-01 1.000000e-03
      vertex -9.910121e-02 -1.126008e-01 1.000000e-03
      vertex -8.919497e-02 -1.205996e-01 1.000000e-03
    endloop
  endfacet
  facet normal 0.000000e+00 0.000000e+00 1.000000e+00
    outer loop
      vertex 9.910121e-02 -1.126008e-01 1.000000e-03
      vertex -9.910121e-02 -1.126008e-01 1.000000e-03
      vertex 8.919497e-02 -1.205996e-01 1.000000e-03
    endloop
  endfacet
  facet normal 0.000000e+00 0.000000e+00 1.000000e+00
    outer loop
      vertex 9.910121e-02 -1.126008e-01 1.000000e-03
      vertex -1.082934e-01 -1.037908e-01 1.000000e-03
      vertex -9.910121e-02 -1.126008e-01 1.000000e-03
    endloop
  endfacet
  facet normal 0.000000e+00 0.000000e+00 1.000000e+00
    outer loop
      vertex 1.082934e-01 -1.037908e-01 1.000000e-03
      vertex -1.082934e-01 -1.037908e-01 1.000000e-03
      vertex 9.910121e-02 -1.126008e-01 1.000000e-03
    endloop
  endfacet
  facet normal 0.000000e+00 0.000000e+00 1.000000e+00
    outer loop
      vertex 1.082934e-01 -1.037908e-01 1.000000e-03
      vertex -1.167054e-01 -9.423300e-02 1.000000e-03
      vertex -1.082934e-01 -1.037908e-01 1.000000e-03
    endloop
  endfacet
  facet normal 0.000000e+00 0.000000e+00 1.000000e+00
    outer loop
      vertex 1.167054e-01 -9.423300e-02 1.000000e-03
      vertex -1.167054e-01 -9.423300e-02 1.000000e-03
      vertex 1.082934e-01 -1.037908e-01 1.000000e-03
    endloop
  endfacet
  facet normal 0.000000e+00 0.000000e+00 1.000000e+00
    outer loop
      vertex 1.167054e-01 -9.423300e-02 1.000000e-03
      vertex -1.242764e-01 -8.399622e-02 1.000000e-03
      vertex -1.167054e-01 -9.423300e-02 1.000000e-03
    endloop
  endfacet
  facet normal 0.000000e+00 0.000000e+00 1.000000e+00
    outer loop
      vertex 1.242764e-01 -8.399622e-02 1.000000e-03
      vertex -1.242764e-01 -8.399622e-02 1.000000e-03
      vertex 1.167054e-01 -9.423300e-02 1.000000e-03
    endloop
  endfacet
  facet normal 0.000000e+00 0.000000e+00 1.000000e+00
    outer loop
      vertex 1.242764e-01 -8.399622e-02 1.000000e-03
      vertex -1.309521e-01 -7.315424e-02 1.000000e-03
      vertex -1.242764e-01 -8.399622e-02 1.000000e-03
    endloop
  endfacet
  facet normal 0.000000e+00 0.000000e+00 1.000000e+00
    outer loop
      vertex 1.309521e-01 -7.315424e-02 1.000000e-03
      vertex -1.309521e-01 -7.315424e-02 1.000000e-03
      vertex 1.242764e-01 -8.399622e-02 1.000000e-03
    endloop
  endfacet
  facet normal 0.000000e+00 0.000000e+00 1.000000e+00
    outer loop
      vertex 1.309521e-01 -7.315424e-02 1.000000e-03
      vertex -1.366843e-01 -6.178519e-02 1.000000e-03
      vertex -1.309521e-01 -7.315424e-02 1.000000e-03
    endloop
  endfacet
  facet normal 0.000000e+00 0.000000e+00 1.000000e+00
    outer loop
      vertex 1.366843e-01 -6.178519e-02 1.000000e-03
      vertex -1.366843e-01 -6.178519e-02 1.000000e-03
      vertex 1.309521e-01 -7.315424e-02 1.000000e-03
    endloop
  endfacet
  facet normal 0.000000e+00 0.000000e+00 1.000000e+00
    outer loop
      vertex 1.366843e-01 -6.178519e-02 1.000000e-03
      vertex -1.414316e-01 -4.997097e-02 1.000000e-03
      vertex -1.366843e-01 -6.178519e-02 1.000000e-03
    endloop
  endfacet
  facet normal 0.000000e+00 0.000000e+00 1.000000e+00
    outer loop
      vertex 1.414316e-01 -4.997097e-02 1.000000e-03
      vertex -1.414316e-01 -4.997097e-02 1.000000e-03
      vertex 1.366843e-01 -6.178519e-02 1.000000e-03
    endloop
  endfacet
  facet normal 0.000000e+00 0.000000e+00 1.000000e+00
    outer loop
      vertex 1.414316e-01 -4.997097e-02 1.000000e-03
      vertex -1.451599e-01 -3.779671e-02 1.000000e-03
      vertex -1.414316e-01 -4.997097e-02 1.000000e-03
    endloop
  endfacet
  facet normal 0.000000e+00 0.000000e+00 1.000000e+00
    outer loop
      vertex 1.451599e-01 -3.779671e-02 1.000000e-03
      vertex -1.451599e-01 -3.779671e-02 1.000000e-03
      vertex 1.414316e-01 -4.997097e-02 1.000000e-03
    endloop
  endfacet
  facet normal 0.000000e+00 0.000000e+00 1.000000e+00
    outer loop
      vertex 1.451599e-01 -3.779671e-02 1.000000e-03
      vertex -1.478424e-01 -2.535012e-02 1.000000e-03
      vertex -1.451599e-01 -3.779671e-02 1.000000e-03
    endloop
  endfacet
  facet normal 0.000000e+00 0.000000e+00 1.000000e+00
    outer loop
      vertex 1.478424e-01 -2.535012e-02 1.000000e-03
      vertex -1.478424e-01 -2.535012e-02 1.000000e-03
      vertex 1.451599e-01 -3.779671e-02 1.000000e-03
    endloop
  endfacet
  facet normal 0.000000e+00 0.000000e+00 1.000000e+00
    outer loop
      vertex 1.478424e-01 -2.535012e-02 1.000000e-03
      vertex -1.494596e-01 -1.272089e-02 1.000000e-03
      vertex -1.478424e-01 -2.535012e-02 1.000000e-03
    endloop
  endfacet
  facet normal 0.000000e+00 0.000000e+00 1.000000e+00
    outer loop
      vertex 1.494596e-01 -1.272089e-02 1.000000e-03
      vertex -1.494596e-01 -1.272089e-02 1.000000e-03
      vertex 1.478424e-01 -2.535012e-02 1.000000e-03
    endloop
  endfacet
  facet normal 0.000000e+00 0.000000e+00 1.000000e+00
    outer loop
      vertex 1.494596e-01 -1.272089e-02 1.000000e-03
      vertex -1.500000e-01 1.836970e-17 1.000000e-03
      vertex -1.494596e-01 -1.272089e-02 1.000000e-03
    endloop
  endfacet
  facet normal 0.000000e+00 0.000000e+00 1.000000e+00
    outer loop
      vertex 1.500000e-01 0.000000e+00 1.000000e-03
      vertex -1.500000e-01 1.836970e-17 1.000000e-03
      vertex 1.494596e-01 -1.272089e-02 1.000000e-03
    endloop
  endfacet
  facet normal 0.000000e+00 0.000000e+00 1.000000e+00
    outer loop
      vertex 1.500000e-01 0.000000e+00 1.000000e-03
      vertex -1.494596e-01 1.272089e-02 1.000000e-03
      vertex -1.500000e-01 1.836970e-17 1.000000e-03
    endloop
  endfacet
  facet normal 0.000000e+00 0.000000e+00 1.000000e+00
    outer loop
      vertex 1.494596e-01 1.272089e-02 1.000000e-03
      vertex -1.494596e-01 1.272089e-02 1.000000e-03
      vertex 1.500000e-01 0.000000e+00 1.000000e-03
    endloop
  endfacet
  facet normal 0.000000e+00 0.000000e+00 1.000000e+00
    outer loop
      vertex 1.494596e-01 1.272089e-02 1.000000e-03
      vertex -1.478424e-01 2.535012e-02 1.000000e-03
      vertex -1.494596e-01 1.272089e-02 1.000000e-03
    endloop
  endfacet
  facet normal 0.000000e+00 0.000000e+00 1.000000e+00
    outer loop
      vertex 1.478424e-01 2.535012e-02 1.000000e-03
      vertex -1.478424e-01 2.535012e-02 1.000000e-03
      vertex 1.494596e-01 1.272089e-02 1.000000e-03
    endloop
  endfacet
  facet normal 0.000000e+00 0.000000e+00 1.000000e+00
    outer loop
      vertex 1.478424e-01 2.535012e-02 1.000000e-03
      vertex -1.451599e-01 3.779671e-02 1.000000e-03
      vertex -1.478424e-01 2.535012e-02 1.000000e-03
    endloop
  endfacet
  facet normal 0.000000e+00 0.000000e+00 1.000000e+00
    outer loop
      vertex 1.451599e-01 3.779671e-02 1.000000e-03
      vertex -1.451599e-01 3.779671e-02 1.000000e-03
      vertex 1.478424e-01 2.535012e-02 1.000000e-03
    endloop
  endfacet
  facet normal 0.000000e+00 0.000000e+00 1.000000e+00
    outer loop
      vertex 1.451599e-01 3.779671e-02 1.000000e-03
      vertex -1.414316e-01 4.997097e-02 1.000000e-03
      vertex -1.451599e-01 3.779671e-02 1.000000e-03
    endloop
  endfacet
  facet normal 0.000000e+00 0.000000e+00 1.000000e+00
    outer loop
      vertex 1.414316e-01 4.997097e-02 1.000000e-03
      vertex -1.414316e-01 4.997097e-02 1.000000e-03
      vertex 1.451599e-01 3.779671e-02 1.000000e-03
    endloop
  endfacet
  facet normal 0.000000e+00 0.000000e+00 1.000000e+00
    outer loop
      vertex 1.414316e-01 4.997097e-02 1.000000e-03
      vertex -1.366843e-01 6.178519e-02 1.000000e-03
      vertex -1.414316e-01 4.997097e-02 1.000000e-03
    endloop
  endfacet
  facet normal 0.000000e+00 0.000000e+00 1.000000e+00
    outer loop
      vertex 1.366843e-01 6.178519e-02 1.000000e-03
      vertex -1.366843e-01 6.178519e-02 1.000000e-03
      vertex 1.414316e-01 4.997097e-02 1.000000e-03
    endloop
  endfacet
  facet normal 0.000000e+00 0.000000e+00 1.000000e+00
    outer loop
      vertex 1.366843e-01 6.178519e-02 1.000000e-03
      vertex -1.309521e-01 7.315424e-02 1.000000e-03
      vertex -1.366843e-01 6.178519e-02 1.000000e-03
    endloop
  endfacet
  facet normal 0.000000e+00 0.000000e+00 1.000000e+00
    outer loop
      vertex 1.309521e-01 7.315424e-02 1.000000e-03
      vertex -1.309521e-01 7.315424e-02 1.000000e-03
      vertex 1.366843e-01 6.178519e-02 1.000000e-03
    endloop
  endfacet
  facet normal 0.000000e+00 0.000000e+00 1.000000e+00
    outer loop
      vertex 1.309521e-01 7.315424e-02 1.000000e-03
      vertex -1.242764e-01 8.399622e-02 1.000000e-03
      vertex -1.309521e-01 7.315424e-02 1.000000e-03
    endloop
  endfacet
  facet normal 0.000000e+00 0.000000e+00 1.000000e+00
    outer loop
      vertex 1.242764e-01 8.399622e-02 1.000000e-03
      vertex -1.242764e-01 8.399622e-02 1.000000e-03
      vertex 1.309521e-01 7.315424e-02 1.000000e-03
    endloop
  endfacet
  facet normal 0.000000e+00 0.000000e+00 1.000000e+00
    outer loop
      vertex 1.242764e-01 8.399622e-02 1.000000e-03
      vertex -1.167054e-01 9.423300e-02 1.000000e-03
      vertex -1.242764e-01 8.399622e-02 1.000000e-03
    endloop
  endfacet
  facet normal 0.000000e+00 0.000000e+00 1.000000e+00
    outer loop
      vertex 1.167054e-01 9.423300e-02 1.000000e-03
      vertex -1.167054e-01 9.423300e-02 1.000000e-03
      vertex 1.242764e-01 8.399622e-02 1.000000e-03
    endloop
  endfacet
  facet normal 0.000000e+00 0.000000e+00 1.000000e+00
    outer loop
      vertex 1.167054e-01 9.423300e-02 1.000000e-03
      vertex -1.082934e-01 1.037908e-01 1.000000e-03
      vertex -1.167054e-01 9.423300e-02 1.000000e-03
    endloop
  endfacet
  facet normal 0.000000e+00 0.000000e+00 1.000000e+00
    outer loop
      vertex 1.082934e-01 1.037908e-01 1.000000e-03
      vertex -1.082934e-01 1.037908e-01 1.000000e-03
      vertex 1.167054e-01 9.423300e-02 1.000000e-03
    endloop
  endfacet
  facet normal 0.000000e+00 0.000000e+00 1.000000e+00
    outer loop
      vertex 1.082934e-01 1.037908e-01 1.000000e-03
      vertex -9.910121e-02 1.126008e-01 1.000000e-03
      vertex -1.082934e-01 1.037908e-01 1.000000e-03
    endloop
  endfacet
  facet normal 0.000000e+00 0.000000e+00 1.000000e+00
    outer loop
      vertex 9.910121e-02 1.126008e-01 1.000000e-03
      vertex -9.910121e-02 1.126008e-01 1.000000e-03
      vertex 1.082934e-01 1.037908e-01 1.000000e-03
    endloop
  endfacet
  facet normal 0.000000e+00 0.000000e+00 1.000000e+00
    outer loop
      vertex 9.910121e-02 1.126008e-01 1.000000e-03
      vertex -8.919497e-02 1.205996e-01 1.000000e-03
      vertex -9.910121e-02 1.126008e-01 1.000000e-03
    endloop
  endfacet
  facet normal 0.000000e+00 0.000000e+00 1.000000e+00
    outer loop
      vertex 8.919497e-02 1.205996e-01 1.000000e-03
      vertex -8.919497e-02 1.205996e-01 1.000000e-03
      vertex 9.910121e-02 1.126008e-01 1.000000e-03
    endloop
  endfacet
  facet normal 0.000000e+00 0.000000e+00 1.000000e+00
    outer loop
      vertex 8.919497e-02 1.205996e-01 1.000000e-03
      vertex -7.864609e-02 1.277294e-01 1.000000e-03
      vertex -8.919497e-02 1.205996e-01 1.000000e-03
    endloop
  endfacet
  facet normal 0.000000e+00 0.000000e+00 1.000000e+00
    outer loop
      vertex 7.864609e-02 1.277294e-01 1.000000e-03
      vertex -7.864609e-02 1.277294e-01 1.000000e-03
      vertex 8.919497e-02 1.205996e-01 1.000000e-03
    endloop
  endfacet
  facet normal 0.000000e+00 0.000000e+00 1.000000e+00
    outer loop
      vertex 7.864609e-02 1.277294e-01 1.000000e-03
      vertex -6.753056e-02 1.339389e-01 1.000000e-03
      vertex -7.864609e-02 1.277294e-01 1.000000e-03
    endloop
  endfacet
  facet normal 0.000000e+00 0.000000e+00 1.000000e+00
    outer loop
      vertex 6.753056e-02 1.339389e-01 1.000000e-03
      vertex -6.753056e-02 1.339389e-01 1.000000e-03
      vertex 7.864609e-02 1.277294e-01 1.000000e-03
    endloop
  endfacet
  facet normal 0.000000e+00 0.000000e+00 1.000000e+00
    outer loop
      vertex 6.753056e-02 1.339389e-01 1.000000e-03
      vertex -5.592847e-02 1.391833e-01 1.000000e-03
      vertex -6.753056e-02 1.339389e-01 1.000000e-03
    endloop
  endfacet
  facet normal 0.000000e+00 0.000000e+00 1.000000e+00
    outer loop
      vertex 5.592847e-02 1.391833e-01 1.000000e-03
      vertex -5.592847e-02 1.391833e-01 1.000000e-03
      vertex 6.753056e-02 1.339389e-01 1.000000e-03
    endloop
  endfacet
  facet normal 0.000000e+00 0.000000e+00 1.000000e+00
    outer loop
      vertex 5.592847e-02 1.391833e-01 1.000000e-03
      vertex -4.392342e-02 1.434250e-01 1.000000e-03
      vertex -5.592847e-02 1.391833e-01 1.000000e-03
    endloop
  endfacet
  facet normal 0.000000e+00 0.000000e+00 1.000000e+00
    outer loop
      vertex 4.392342e-02 1.434250e-01 1.000000e-03
      vertex -4.392342e-02 1.434250e-01 1.000000e-03
      vertex 5.592847e-02 1.391833e-01 1.000000e-03
    endloop
  endfacet
  facet normal 0.000000e+00 0.000000e+00 1.000000e+00
    outer loop
      vertex 4.392342e-02 1.434250e-01 1.000000e-03
      vertex -3.160189e-02 1.466333e-01 1.000000e-03
      vertex -4.392342e-02 1.434250e-01 1.000000e-03
    endloop
  endfacet
  facet normal 0.000000e+00 0.000000e+00 1.000000e+00
    outer loop
      vertex 3.160189e-02 1.466333e-01 1.000000e-03
      vertex -3.160189e-02 1.466333e-01 1.000000e-03
      vertex 4.392342e-02 1.434250e-01 1.000000e-03
    endloop
  endfacet
  facet normal 0.000000e+00 0.000000e+00 1.000000e+00
    outer loop
      vertex 3.160189e-02 1.466333e-01 1.000000e-03
      vertex -1.905267e-02 1.487851e-01 1.000000e-03
      vertex -3.160189e-02 1.466333e-01 1.000000e-03
    endloop
  endfacet
  facet normal 0.000000e+00 0.000000e+00 1.000000e+00
    outer loop
      vertex 1.905267e-02 1.487851e-01 1.000000e-03
      vertex -1.905267e-02 1.487851e-01 1.000000e-03
      vertex 3.160189e-02 1.466333e-01 1.000000e-03
    endloop
  endfacet
  facet normal 0.000000e+00 0.000000e+00 1.000000e+00
    outer loop
      vertex 1.905267e-02 1.487851e-01 1.000000e-03
      vertex -6.366180e-03 1.498648e-01 1.000000e-03
      vertex -1.905267e-02 1.487851e-01 1.000000e-03
    endloop
  endfacet
  facet normal 0.000000e+00 0.000000e+00 1.000000e+00
    outer loop
      vertex 6.366180e-03 1.498648e-01 1.000000e-03
      vertex -6.366180e-03 1.498648e-01 1.000000e-03
      vertex 1.905267e-02 1.487851e-01 1.000000e-03
    endloop
  endfacet
  facet normal 9.951972e-03 7.679852e-04 -9.999500e-01
    outer loop
      vertex 5.000000e-02 0.000000e+00 0.000000e+00
      vertex 4.946717e-02 7.280058e-03 0.000000e+00
      vertex 1.494596e-01 1.272089e-02 1.000000e-03
    endloop
  endfacet
  facet normal 9.904028e-03 1.331293e-03 -9.999500e-01
    outer loop
      vertex 4.946717e-02 7.280058e-03 0.000000e+00
      vertex 1.478424e-01 2.535012e-02 1.000000e-03
      vertex 1.494596e-01 1.272089e-02 1.000000e-03
    endloop
  endfacet
  facet normal 9.808484e-03 1.888506e-03 -9.999500e-01
    outer loop
      vertex 4.946717e-02 7.280058e-03 0.000000e+00
      vertex 1.451599e-01 3.779671e-02 1.000000e-03
      vertex 1.478424e-01 2.535012e-02 1.000000e-03
    endloop
  endfacet
  facet normal 9.715104e-03 2.285480e-03 -9.999500e-01
    outer loop
      vertex 4.788003e-02 1.440495e-02 0.000000e+00
      vertex 1.451599e-01 3.779671e-02 1.000000e-03
      vertex 4.946717e-02 7.280058e-03 0.000000e+00
    endloop
  endfacet
  facet normal 9.560226e-03 2.910577e-03 -9.999500e-01
    outer loop
      vertex 4.788003e-02 1.440495e-02 0.000000e+00
      vertex 1.414316e-01 4.997097e-02 1.000000e-03
      vertex 1.451599e-01 3.779671e-02 1.000000e-03
    endloop
  endfacet
  facet normal 9.352620e-03 3.485478e-03 -9.999500e-01
    outer loop
      vertex 4.527241e-02 2.122283e-02 0.000000e+00
      vertex 1.414316e-01 4.997097e-02 1.000000e-03
      vertex 4.788003e-02 1.440495e-02 0.000000e+00
    endloop
  endfacet
  facet normal 9.198054e-03 3.898131e-03 -9.999500e-01
    outer loop
      vertex 4.527241e-02 2.122283e-02 0.000000e+00
      vertex 1.366843e-01 6.178519e-02 1.000000e-03
      vertex 1.414316e-01 4.997097e-02 1.000000e-03
    endloop
  endfacet
  facet normal 8.965188e-03 4.413289e-03 -9.999500e-01
    outer loop
      vertex 4.527241e-02 2.122283e-02 0.000000e+00
      vertex 1.309521e-01 7.315424e-02 1.000000e-03
      vertex 1.366843e-01 6.178519e-02 1.000000e-03
    endloop
  endfacet
  facet normal 8.707765e-03 4.879487e-03 -9.999500e-01
    outer loop
      vertex 4.169989e-02 2.758839e-02 0.000000e+00
      vertex 1.309521e-01 7.315424e-02 1.000000e-03
      vertex 4.527241e-02 2.122283e-02 0.000000e+00
    endloop
  endfacet
  facet normal 8.451317e-03 5.331192e-03 -9.999500e-01
    outer loop
      vertex 4.169989e-02 2.758839e-02 0.000000e+00
      vertex 1.242764e-01 8.399622e-02 1.000000e-03
      vertex 1.309521e-01 7.315424e-02 1.000000e-03
    endloop
  endfacet
  facet normal 8.134738e-03 5.799585e-03 -9.999500e-01
    outer loop
      vertex 4.169989e-02 2.758839e-02 0.000000e+00
      vertex 1.167054e-01 9.423300e-02 1.000000e-03
      vertex 1.242764e-01 8.399622e-02 1.000000e-03
    endloop
  endfacet
  facet normal 7.855627e-03 6.157381e-03 -9.999500e-01
    outer loop
      vertex 3.723861e-02 3.336594e-02 0.000000e+00
      vertex 1.167054e-01 9.423300e-02 1.000000e-03
      vertex 4.169989e-02 2.758839e-02 0.000000e+00
    endloop
  endfacet
  facet normal 7.482173e-03 6.624594e-03 -9.999500e-01
    outer loop
      vertex 3.723861e-02 3.336594e-02 0.000000e+00
      vertex 1.082934e-01 1.037908e-01 1.000000e-03
      vertex 1.167054e-01 9.423300e-02 1.000000e-03
    endloop
  endfacet
  facet normal 7.020986e-03 7.092661e-03 -9.999500e-01
    outer loop
      vertex 3.198365e-02 3.843236e-02 0.000000e+00
      vertex 1.082934e-01 1.037908e-01 1.000000e-03
      vertex 3.723861e-02 3.336594e-02 0.000000e+00
    endloop
  endfacet
  facet normal 6.740676e-03 7.370492e-03 -9.999500e-01
    outer loop
      vertex 3.198365e-02 3.843236e-02 0.000000e+00
      vertex 9.910121e-02 1.126008e-01 1.000000e-03
      vertex 1.082934e-01 1.037908e-01 1.000000e-03
    endloop
  endfacet
  facet normal 6.316287e-03 7.744002e-03 -9.999500e-01
    outer loop
      vertex 3.198365e-02 3.843236e-02 0.000000e+00
      vertex 8.919497e-02 1.205996e-01 1.000000e-03
      vertex 9.910121e-02 1.126008e-01 1.000000e-03
    endloop
  endfacet
  facet normal 5.850529e-03 8.087054e-03 -9.999500e-01
    outer loop
      vertex 2.604702e-02 4.267965e-02 0.000000e+00
      vertex 8.919497e-02 1.205996e-01 1.000000e-03
      vertex 3.198365e-02 3.843236e-02 0.000000e+00
    endloop
  endfacet
  facet normal 5.465996e-03 8.363313e-03 -9.999500e-01
    outer loop
      vertex 2.604702e-02 4.267965e-02 0.000000e+00
      vertex 7.864609e-02 1.277294e-01 1.000000e-03
      vertex 8.919497e-02 1.205996e-01 1.000000e-03
    endloop
  endfacet
  facet normal 4.984588e-03 8.659728e-03 -9.999500e-01
    outer loop
      vertex 2.604702e-02 4.267965e-02 0.000000e+00
      vertex 6.753056e-02 1.339389e-01 1.000000e-03
      vertex 7.864609e-02 1.277294e-01 1.000000e-03
    endloop
  endfacet
  facet normal 4.540602e-03 8.889106e-03 -9.999500e-01
    outer loop
      vertex 1.955524e-02 4.601731e-02 0.000000e+00
      vertex 6.753056e-02 1.339389e-01 1.000000e-03
      vertex 2.604702e-02 4.267965e-02 0.000000e+00
    endloop
  endfacet
  facet normal 4.047014e-03 9.136747e-03 -9.999500e-01
    outer loop
      vertex 1.955524e-02 4.601731e-02 0.000000e+00
      vertex 5.592847e-02 1.391833e-01 1.000000e-03
      vertex 6.753056e-02 1.339389e-01 1.000000e-03
    endloop
  endfacet
  facet normal 3.522437e-03 9.347538e-03 -9.999500e-01
    outer loop
      vertex 1.955524e-02 4.601731e-02 0.000000e+00
      vertex 4.392342e-02 1.434250e-01 1.000000e-03
      vertex 5.592847e-02 1.391833e-01 1.000000e-03
    endloop
  endfacet
  facet normal 3.122713e-03 9.479515e-03 -9.999500e-01
    outer loop
      vertex 1.264667e-02 4.837419e-02 0.000000e+00
      vertex 4.392342e-02 1.434250e-01 1.000000e-03
      vertex 1.955524e-02 4.601731e-02 0.000000e+00
    endloop
  endfacet
  facet normal 2.521325e-03 9.670202e-03 -9.999500e-01
    outer loop
      vertex 1.264667e-02 4.837419e-02 0.000000e+00
      vertex 3.160189e-02 1.466333e-01 1.000000e-03
      vertex 4.392342e-02 1.434250e-01 1.000000e-03
    endloop
  endfacet
  facet normal 1.909851e-03 9.796310e-03 -9.999500e-01
    outer loop
      vertex 5.468560e-03 4.970005e-02 0.000000e+00
      vertex 3.160189e-02 1.466333e-01 1.000000e-03
      vertex 1.264667e-02 4.837419e-02 0.000000e+00
    endloop
  endfacet
  facet normal 1.490153e-03 9.877696e-03 -9.999500e-01
    outer loop
      vertex 5.468560e-03 4.970005e-02 0.000000e+00
      vertex 1.905267e-02 1.487851e-01 1.000000e-03
      vertex 3.160189e-02 1.466333e-01 1.000000e-03
    endloop
  endfacet
  facet normal 9.293876e-04 9.949504e-03 -9.999500e-01
    outer loop
      vertex 5.468560e-03 4.970005e-02 0.000000e+00
      vertex 6.366180e-03 1.498648e-01 1.000000e-03
      vertex 1.905267e-02 1.487851e-01 1.000000e-03
    endloop
  endfacet
  facet normal 3.842821e-04 9.974278e-03 -9.999500e-01
    outer loop
      vertex -1.826101e-03 4.996664e-02 0.000000e+00
      vertex 6.366180e-03 1.498648e-01 1.000000e-03
      vertex 5.468560e-03 4.970005e-02 0.000000e+00
    endloop
  endfacet
  facet normal -1.217340e-04 9.991270e-03 -9.999500e-01
    outer loop
      vertex -1.826101e-03 4.996664e-02 0.000000e+00
      vertex -6.366180e-03 1.498648e-01 1.000000e-03
      vertex 6.366180e-03 1.498648e-01 1.000000e-03
    endloop
  endfacet
  facet normal -6.865691e-04 9.967276e-03 -9.999500e-01
    outer loop
      vertex -1.826101e-03 4.996664e-02 0.000000e+00
      vertex -1.905267e-02 1.487851e-01 1.000000e-03
      vertex -6.366180e-03 1.498648e-01 1.000000e-03
    endloop
  endfacet
  facet normal -1.150531e-03 9.914834e-03 -9.999500e-01
    outer loop
      vertex -9.081842e-03 4.916828e-02 0.000000e+00
      vertex -1.905267e-02 1.487851e-01 1.000000e-03
      vertex -1.826101e-03 4.996664e-02 0.000000e+00
    endloop
  endfacet
  facet normal -1.731027e-03 9.842246e-03 -9.999500e-01
    outer loop
      vertex -9.081842e-03 4.916828e-02 0.000000e+00
      vertex -3.160189e-02 1.466333e-01 1.000000e-03
      vertex -1.905267e-02 1.487851e-01 1.000000e-03
    endloop
  endfacet
  facet normal -2.383869e-03 9.690718e-03 -9.999500e-01
    outer loop
      vertex -1.614402e-02 4.732199e-02 0.000000e+00
      vertex -3.160189e-02 1.466333e-01 1.000000e-03
      vertex -9.081842e-03 4.916828e-02 0.000000e+00
    endloop
  endfacet
  facet normal -2.754470e-03 9.600059e-03 -9.999500e-01
    outer loop
      vertex -1.614402e-02 4.732199e-02 0.000000e+00
      vertex -4.392342e-02 1.434250e-01 1.000000e-03
      vertex -3.160189e-02 1.466333e-01 1.000000e-03
    endloop
  endfacet
  facet normal -3.295034e-03 9.434514e-03 -9.999500e-01
    outer loop
      vertex -1.614402e-02 4.732199e-02 0.000000e+00
      vertex -5.592847e-02 1.391833e-01 1.000000e-03
      vertex -4.392342e-02 1.434250e-01 1.000000e-03
    endloop
  endfacet
  facet normal -3.843072e-03 9.211776e-03 -9.999500e-01
    outer loop
      vertex -2.286212e-02 4.446711e-02 0.000000e+00
      vertex -5.592847e-02 1.391833e-01 1.000000e-03
      vertex -1.614402e-02 4.732199e-02 0.000000e+00
    endloop
  endfacet
  facet normal -4.267462e-03 9.033405e-03 -9.999500e-01
    outer loop
      vertex -2.286212e-02 4.446711e-02 0.000000e+00
      vertex -6.753056e-02 1.339389e-01 1.000000e-03
      vertex -5.592847e-02 1.391833e-01 1.000000e-03
    endloop
  endfacet
  facet normal -4.772272e-03 8.778885e-03 -9.999500e-01
    outer loop
      vertex -2.286212e-02 4.446711e-02 0.000000e+00
      vertex -7.864609e-02 1.277294e-01 1.000000e-03
      vertex -6.753056e-02 1.339389e-01 1.000000e-03
    endloop
  endfacet
  facet normal -5.211101e-03 8.513444e-03 -9.999500e-01
    outer loop
      vertex -2.909295e-02 4.066449e-02 0.000000e+00
      vertex -7.864609e-02 1.277294e-01 1.000000e-03
      vertex -2.286212e-02 4.446711e-02 0.000000e+00
    endloop
  endfacet
  facet normal -5.669048e-03 8.228975e-03 -9.999500e-01
    outer loop
      vertex -2.909295e-02 4.066449e-02 0.000000e+00
      vertex -8.919497e-02 1.205996e-01 1.000000e-03
      vertex -7.864609e-02 1.277294e-01 1.000000e-03
    endloop
  endfacet
  facet normal -6.123583e-03 7.892802e-03 -9.999500e-01
    outer loop
      vertex -2.909295e-02 4.066449e-02 0.000000e+00
      vertex -9.910121e-02 1.126008e-01 1.000000e-03
      vertex -8.919497e-02 1.205996e-01 1.000000e-03
    endloop
  endfacet
  facet normal -6.455036e-03 7.612504e-03 -9.999500e-01
    outer loop
      vertex -3.470371e-02 3.599517e-02 0.000000e+00
      vertex -9.910121e-02 1.126008e-01 1.000000e-03
      vertex -2.909295e-02 4.066449e-02 0.000000e+00
    endloop
  endfacet
  facet normal -6.922004e-03 7.208022e-03 -9.999500e-01
    outer loop
      vertex -3.470371e-02 3.599517e-02 0.000000e+00
      vertex -1.082934e-01 1.037908e-01 1.000000e-03
      vertex -9.910121e-02 1.126008e-01 1.000000e-03
    endloop
  endfacet
  facet normal -7.358055e-03 6.743050e-03 -9.999500e-01
    outer loop
      vertex -3.957482e-02 3.055869e-02 0.000000e+00
      vertex -1.082934e-01 1.037908e-01 1.000000e-03
      vertex -3.470371e-02 3.599517e-02 0.000000e+00
    endloop
  endfacet
  facet normal -7.637913e-03 6.437453e-03 -9.999500e-01
    outer loop
      vertex -3.957482e-02 3.055869e-02 0.000000e+00
      vertex -1.167054e-01 9.423300e-02 1.000000e-03
      vertex -1.082934e-01 1.037908e-01 1.000000e-03
    endloop
  endfacet
  facet normal -7.993073e-03 5.997595e-03 -9.999500e-01
    outer loop
      vertex -3.957482e-02 3.055869e-02 0.000000e+00
      vertex -1.242764e-01 8.399622e-02 1.000000e-03
      vertex -1.167054e-01 9.423300e-02 1.000000e-03
    endloop
  endfacet
  facet normal -8.306436e-03 5.534945e-03 -9.999500e-01
    outer loop
      vertex -4.360247e-02 2.447089e-02 0.000000e+00
      vertex -1.242764e-01 8.399622e-02 1.000000e-03
      vertex -3.957482e-02 3.055869e-02 0.000000e+00
    endloop
  endfacet
  facet normal -8.578149e-03 5.123369e-03 -9.999500e-01
    outer loop
      vertex -4.360247e-02 2.447089e-02 0.000000e+00
      vertex -1.309521e-01 7.315424e-02 1.000000e-03
      vertex -1.242764e-01 8.399622e-02 1.000000e-03
    endloop
  endfacet
  facet normal -8.853864e-03 4.629815e-03 -9.999500e-01
    outer loop
      vertex -4.360247e-02 2.447089e-02 0.000000e+00
      vertex -1.366843e-01 6.178519e-02 1.000000e-03
      vertex -1.309521e-01 7.315424e-02 1.000000e-03
    endloop
  endfacet
  facet normal -9.057194e-03 4.194957e-03 -9.999500e-01
    outer loop
      vertex -4.670081e-02 1.786155e-02 0.000000e+00
      vertex -1.366843e-01 6.178519e-02 1.000000e-03
      vertex -4.360247e-02 2.447089e-02 0.000000e+00
    endloop
  endfacet
  facet normal -9.293276e-03 3.674056e-03 -9.999500e-01
    outer loop
      vertex -4.670081e-02 1.786155e-02 0.000000e+00
      vertex -1.414316e-01 4.997097e-02 1.000000e-03
      vertex -1.366843e-01 6.178519e-02 1.000000e-03
    endloop
  endfacet
  facet normal -9.481614e-03 3.141006e-03 -9.999500e-01
    outer loop
      vertex -1.451599e-01 3.779671e-02 1.000000e-03
      vertex -1.414316e-01 4.997097e-02 1.000000e-03
      vertex -4.670081e-02 1.786155e-02 0.000000e+00
    endloop
  endfacet
  facet normal -9.592270e-03 2.755326e-03 -9.999500e-01
    outer loop
      vertex -4.880379e-02 1.087151e-02 0.000000e+00
      vertex -1.451599e-01 3.779671e-02 1.000000e-03
      vertex -4.670081e-02 1.786155e-02 0.000000e+00
    endloop
  endfacet
  facet normal -9.764262e-03 2.127924e-03 -9.999500e-01
    outer loop
      vertex -1.478424e-01 2.535012e-02 1.000000e-03
      vertex -1.451599e-01 3.779671e-02 1.000000e-03
      vertex -4.880379e-02 1.087151e-02 0.000000e+00
    endloop
  endfacet
  facet normal -9.862921e-03 1.531344e-03 -9.999500e-01
    outer loop
      vertex -4.986661e-02 3.649766e-03 0.000000e+00
      vertex -1.478424e-01 2.535012e-02 1.000000e-03
      vertex -4.880379e-02 1.087151e-02 0.000000e+00
    endloop
  endfacet
  facet normal -9.930656e-03 1.089286e-03 -9.999500e-01
    outer loop
      vertex -1.494596e-01 1.272089e-02 1.000000e-03
      vertex -1.478424e-01 2.535012e-02 1.000000e-03
      vertex -4.986661e-02 3.649766e-03 0.000000e+00
    endloop
  endfacet
  facet normal -9.990607e-03 -2.433056e-04 -9.999500e-01
    outer loop
      vertex -1.500000e-01 1.836970e-17 1.000000e-03
      vertex -5.000000e-02 6.123234e-18 0.000000e+00
      vertex -4.986661e-02 -3.649766e-03 0.000000e+00
    endloop
  endfacet
  facet normal -9.990607e-03 2.433056e-04 -9.999500e-01
    outer loop
      vertex -1.500000e-01 1.836970e-17 1.000000e-03
      vertex -4.986661e-02 3.649766e-03 0.000000e+00
      vertex -5.000000e-02 6.123234e-18 0.000000e+00
    endloop
  endfacet
  facet normal -9.978600e-03 5.259779e-04 -9.999500e-01
    outer loop
      vertex -1.494596e-01 1.272089e-02 1.000000e-03
      vertex -4.986661e-02 3.649766e-03 0.000000e+00
      vertex -1.500000e-01 1.836970e-17 1.000000e-03
    endloop
  endfacet
  facet normal -9.978600e-03 -5.259779e-04 -9.999500e-01
    outer loop
      vertex -4.986661e-02 -3.649766e-03 0.000000e+00
      vertex -1.494596e-01 -1.272089e-02 1.000000e-03
      vertex -1.500000e-01 1.836970e-17 1.000000e-03
    endloop
  endfacet
  facet normal -9.930656e-03 -1.089286e-03 -9.999500e-01
    outer loop
      vertex -4.986661e-02 -3.649766e-03 0.000000e+00
      vertex -1.478424e-01 -2.535012e-02 1.000000e-03
      vertex -1.494596e-01 -1.272089e-02 1.000000e-03
    endloop
  endfacet
  facet normal -9.862920e-03 -1.531344e-03 -9.999500e-01
    outer loop
      vertex -4.880379e-02 -1.087151e-02 0.000000e+00
      vertex -1.478424e-01 -2.535012e-02 1.000000e-03
      vertex -4.986661e-02 -3.649766e-03 0.000000e+00
    endloop
  endfacet
  facet normal -9.764261e-03 -2.127924e-03 -9.999500e-01
    outer loop
      vertex -4.880379e-02 -1.087151e-02 0.000000e+00
      vertex -1.451599e-01 -3.779671e-02 1.000000e-03
      vertex -1.478424e-01 -2.535012e-02 1.000000e-03
    endloop
  endfacet
  facet normal -9.592270e-03 -2.755326e-03 -9.999500e-01
    outer loop
      vertex -4.670081e-02 -1.786155e-02 0.000000e+00
      vertex -1.451599e-01 -3.779671e-02 1.000000e-03
      vertex -4.880379e-02 -1.087151e-02 0.000000e+00
    endloop
  endfacet
  facet normal -9.481614e-03 -3.141005e-03 -9.999500e-01
    outer loop
      vertex -4.670081e-02 -1.786155e-02 0.000000e+00
      vertex -1.414316e-01 -4.997097e-02 1.000000e-03
      vertex -1.451599e-01 -3.779671e-02 1.000000e-03
    endloop
  endfacet
  facet normal -9.293276e-03 -3.674056e-03 -9.999500e-01
    outer loop
      vertex -4.670081e-02 -1.786155e-02 0.000000e+00
      vertex -1.366843e-01 -6.178519e-02 1.000000e-03
      vertex -1.414316e-01 -4.997097e-02 1.000000e-03
    endloop
  endfacet
  facet normal -9.057194e-03 -4.194957e-03 -9.999500e-01
    outer loop
      vertex -4.360247e-02 -2.447089e-02 0.000000e+00
      vertex -1.366843e-01 -6.178519e-02 1.000000e-03
      vertex -4.670081e-02 -1.786155e-02 0.000000e+00
    endloop
  endfacet
  facet normal -8.853864e-03 -4.629815e-03 -9.999500e-01
    outer loop
      vertex -4.360247e-02 -2.447089e-02 0.000000e+00
      vertex -1.309521e-01 -7.315424e-02 1.000000e-03
      vertex -1.366843e-01 -6.178519e-02 1.000000e-03
    endloop
  endfacet
  facet normal -8.578148e-03 -5.123369e-03 -9.999500e-01
    outer loop
      vertex -4.360247e-02 -2.447089e-02 0.000000e+00
      vertex -1.242764e-01 -8.399622e-02 1.000000e-03
      vertex -1.309521e-01 -7.315424e-02 1.000000e-03
    endloop
  endfacet
  facet normal -8.306436e-03 -5.534945e-03 -9.999500e-01
    outer loop
      vertex -3.957482e-02 -3.055869e-02 0.000000e+00
      vertex -1.242764e-01 -8.399622e-02 1.000000e-03
      vertex -4.360247e-02 -2.447089e-02 0.000000e+00
    endloop
  endfacet
  facet normal -7.993073e-03 -5.997595e-03 -9.999500e-01
    outer loop
      vertex -3.957482e-02 -3.055869e-02 0.000000e+00
      vertex -1.167054e-01 -9.423300e-02 1.000000e-03
      vertex -1.242764e-01 -8.399622e-02 1.000000e-03
    endloop
  endfacet
  facet normal -7.637912e-03 -6.437453e-03 -9.999500e-01
    outer loop
      vertex -3.957482e-02 -3.055869e-02 0.000000e+00
      vertex -1.082934e-01 -1.037908e-01 1.000000e-03
      vertex -1.167054e-01 -9.423300e-02 1.000000e-03
    endloop
  endfacet
  facet normal -7.358055e-03 -6.743050e-03 -9.999500e-01
    outer loop
      vertex -3.470371e-02 -3.599517e-02 0.000000e+00
      vertex -1.082934e-01 -1.037908e-01 1.000000e-03
      vertex -3.957482e-02 -3.055869e-02 0.000000e+00
    endloop
  endfacet
  facet normal -6.922004e-03 -7.208022e-03 -9.999500e-01
    outer loop
      vertex -3.470371e-02 -3.599517e-02 0.000000e+00
      vertex -9.910121e-02 -1.126008e-01 1.000000e-03
      vertex -1.082934e-01 -1.037908e-01 1.000000e-03
    endloop
  endfacet
  facet normal -6.455036e-03 -7.612504e-03 -9.999500e-01
    outer loop
      vertex -2.909295e-02 -4.066449e-02 0.000000e+00
      vertex -9.910121e-02 -1.126008e-01 1.000000e-03
      vertex -3.470371e-02 -3.599517e-02 0.000000e+00
    endloop
  endfacet
  facet normal -6.123583e-03 -7.892802e-03 -9.999500e-01
    outer loop
      vertex -2.909295e-02 -4.066449e-02 0.000000e+00
      vertex -8.919497e-02 -1.205996e-01 1.000000e-03
      vertex -9.910121e-02 -1.126008e-01 1.000000e-03
    endloop
  endfacet
  facet normal -5.669048e-03 -8.228975e-03 -9.999500e-01
    outer loop
      vertex -2.909295e-02 -4.066449e-02 0.000000e+00
      vertex -7.864609e-02 -1.277294e-01 1.000000e-03
      vertex -8.919497e-02 -1.205996e-01 1.000000e-03
    endloop
  endfacet
  facet normal -5.211101e-03 -8.513444e-03 -9.999500e-01
    outer loop
      vertex -2.286212e-02 -4.446711e-02 0.000000e+00
      vertex -7.864609e-02 -1.277294e-01 1.000000e-03
      vertex -2.909295e-02 -4.066449e-02 0.000000e+00
    endloop
  endfacet
  facet normal -4.772272e-03 -8.778885e-03 -9.999500e-01
    outer loop
      vertex -2.286212e-02 -4.446711e-02 0.000000e+00
      vertex -6.753056e-02 -1.339389e-01 1.000000e-03
      vertex -7.864609e-02 -1.277294e-01 1.000000e-03
    endloop
  endfacet
  facet normal -4.267462e-03 -9.033405e-03 -9.999500e-01
    outer loop
      vertex -2.286212e-02 -4.446711e-02 0.000000e+00
      vertex -5.592847e-02 -1.391833e-01 1.000000e-03
      vertex -6.753056e-02 -1.339389e-01 1.000000e-03
    endloop
  endfacet
  facet normal -3.843072e-03 -9.211776e-03 -9.999500e-01
    outer loop
      vertex -1.614402e-02 -4.732199e-02 0.000000e+00
      vertex -5.592847e-02 -1.391833e-01 1.000000e-03
      vertex -2.286212e-02 -4.446711e-02 0.000000e+00
    endloop
  endfacet
  facet normal -3.295034e-03 -9.434513e-03 -9.999500e-01
    outer loop
      vertex -1.614402e-02 -4.732199e-02 0.000000e+00
      vertex -4.392342e-02 -1.434250e-01 1.000000e-03
      vertex -5.592847e-02 -1.391833e-01 1.000000e-03
    endloop
  endfacet
  facet normal -2.657667e-03 -9.619427e-03 -9.999500e-01
    outer loop
      vertex -9.081842e-03 -4.916828e-02 0.000000e+00
      vertex -4.392342e-02 -1.434250e-01 1.000000e-03
      vertex -1.614402e-02 -4.732199e-02 0.000000e+00
    endloop
  endfacet
  facet normal -2.283682e-03 -9.723139e-03 -9.999500e-01
    outer loop
      vertex -9.081842e-03 -4.916828e-02 0.000000e+00
      vertex -3.160189e-02 -1.466333e-01 1.000000e-03
      vertex -4.392342e-02 -1.434250e-01 1.000000e-03
    endloop
  endfacet
  facet normal -1.731027e-03 -9.842246e-03 -9.999500e-01
    outer loop
      vertex -9.081842e-03 -4.916828e-02 0.000000e+00
      vertex -1.905267e-02 -1.487851e-01 1.000000e-03
      vertex -3.160189e-02 -1.466333e-01 1.000000e-03
    endloop
  endfacet
  facet normal -1.150531e-03 -9.914834e-03 -9.999500e-01
    outer loop
      vertex -1.826101e-03 -4.996664e-02 0.000000e+00
      vertex -1.905267e-02 -1.487851e-01 1.000000e-03
      vertex -9.081842e-03 -4.916828e-02 0.000000e+00
    endloop
  endfacet
  facet normal -6.865691e-04 -9.967275e-03 -9.999500e-01
    outer loop
      vertex -1.826101e-03 -4.996664e-02 0.000000e+00
      vertex -6.366180e-03 -1.498648e-01 1.000000e-03
      vertex -1.905267e-02 -1.487851e-01 1.000000e-03
    endloop
  endfacet
  facet normal -1.217340e-04 -9.991270e-03 -9.999500e-01
    outer loop
      vertex -1.826101e-03 -4.996664e-02 0.000000e+00
      vertex 6.366180e-03 -1.498648e-01 1.000000e-03
      vertex -6.366180e-03 -1.498648e-01 1.000000e-03
    endloop
  endfacet
  facet normal 3.842821e-04 -9.974278e-03 -9.999500e-01
    outer loop
      vertex 5.468560e-03 -4.970005e-02 0.000000e+00
      vertex 6.366180e-03 -1.498648e-01 1.000000e-03
      vertex -1.826101e-03 -4.996664e-02 0.000000e+00
    endloop
  endfacet
  facet normal 9.293877e-04 -9.949504e-03 -9.999500e-01
    outer loop
      vertex 5.468560e-03 -4.970005e-02 0.000000e+00
      vertex 1.905267e-02 -1.487851e-01 1.000000e-03
      vertex 6.366180e-03 -1.498648e-01 1.000000e-03
    endloop
  endfacet
  facet normal 1.490153e-03 -9.877696e-03 -9.999500e-01
    outer loop
      vertex 5.468560e-03 -4.970005e-02 0.000000e+00
      vertex 3.160189e-02 -1.466333e-01 1.000000e-03
      vertex 1.905267e-02 -1.487851e-01 1.000000e-03
    endloop
  endfacet
  facet normal 1.909851e-03 -9.796310e-03 -9.999500e-01
    outer loop
      vertex 1.264667e-02 -4.837419e-02 0.000000e+00
      vertex 3.160189e-02 -1.466333e-01 1.000000e-03
      vertex 5.468560e-03 -4.970005e-02 0.000000e+00
    endloop
  endfacet
  facet normal 2.521325e-03 -9.670203e-03 -9.999500e-01
    outer loop
      vertex 1.264667e-02 -4.837419e-02 0.000000e+00
      vertex 4.392342e-02 -1.434250e-01 1.000000e-03
      vertex 3.160189e-02 -1.466333e-01 1.000000e-03
    endloop
  endfacet
  facet normal 3.122713e-03 -9.479514e-03 -9.999500e-01
    outer loop
      vertex 1.955524e-02 -4.601731e-02 0.000000e+00
      vertex 4.392342e-02 -1.434250e-01 1.000000e-03
      vertex 1.264667e-02 -4.837419e-02 0.000000e+00
    endloop
  endfacet
  facet normal 3.522437e-03 -9.347539e-03 -9.999500e-01
    outer loop
      vertex 1.955524e-02 -4.601731e-02 0.000000e+00
      vertex 5.592847e-02 -1.391833e-01 1.000000e-03
      vertex 4.392342e-02 -1.434250e-01 1.000000e-03
    endloop
  endfacet
  facet normal 4.047014e-03 -9.136747e-03 -9.999500e-01
    outer loop
      vertex 1.955524e-02 -4.601731e-02 0.000000e+00
      vertex 6.753056e-02 -1.339389e-01 1.000000e-03
      vertex 5.592847e-02 -1.391833e-01 1.000000e-03
    endloop
  endfacet
  facet normal 4.540602e-03 -8.889106e-03 -9.999500e-01
    outer loop
      vertex 2.604702e-02 -4.267965e-02 0.000000e+00
      vertex 6.753056e-02 -1.339389e-01 1.000000e-03
      vertex 1.955524e-02 -4.601731e-02 0.000000e+00
    endloop
  endfacet
  facet normal 4.984589e-03 -8.659728e-03 -9.999500e-01
    outer loop
      vertex 2.604702e-02 -4.267965e-02 0.000000e+00
      vertex 7.864609e-02 -1.277294e-01 1.000000e-03
      vertex 6.753056e-02 -1.339389e-01 1.000000e-03
    endloop
  endfacet
  facet normal 5.465996e-03 -8.363313e-03 -9.999500e-01
    outer loop
      vertex 2.604702e-02 -4.267965e-02 0.000000e+00
      vertex 8.919497e-02 -1.205996e-01 1.000000e-03
      vertex 7.864609e-02 -1.277294e-01 1.000000e-03
    endloop
  endfacet
  facet normal 5.850529e-03 -8.087054e-03 -9.999500e-01
    outer loop
      vertex 3.198365e-02 -3.843236e-02 0.000000e+00
      vertex 8.919497e-02 -1.205996e-01 1.000000e-03
      vertex 2.604702e-02 -4.267965e-02 0.000000e+00
    endloop
  endfacet
  facet normal 6.316287e-03 -7.744001e-03 -9.999500e-01
    outer loop
      vertex 3.198365e-02 -3.843236e-02 0.000000e+00
      vertex 9.910121e-02 -1.126008e-01 1.000000e-03
      vertex 8.919497e-02 -1.205996e-01 1.000000e-03
    endloop
  endfacet
  facet normal 6.740676e-03 -7.370492e-03 -9.999500e-01
    outer loop
      vertex 3.198365e-02 -3.843236e-02 0.000000e+00
      vertex 1.082934e-01 -1.037908e-01 1.000000e-03
      vertex 9.910121e-02 -1.126008e-01 1.000000e-03
    endloop
  endfacet
  facet normal 7.020987e-03 -7.092661e-03 -9.999500e-01
    outer loop
      vertex 3.723861e-02 -3.336594e-02 0.000000e+00
      vertex 1.082934e-01 -1.037908e-01 1.000000e-03
      vertex 3.198365e-02 -3.843236e-02 0.000000e+00
    endloop
  endfacet
  facet normal 7.482172e-03 -6.624594e-03 -9.999500e-01
    outer loop
      vertex 3.723861e-02 -3.336594e-02 0.000000e+00
      vertex 1.167054e-01 -9.423300e-02 1.000000e-03
      vertex 1.082934e-01 -1.037908e-01 1.000000e-03
    endloop
  endfacet
  facet normal 7.855627e-03 -6.157381e-03 -9.999500e-01
    outer loop
      vertex 4.169989e-02 -2.758839e-02 0.000000e+00
      vertex 1.167054e-01 -9.423300e-02 1.000000e-03
      vertex 3.723861e-02 -3.336594e-02 0.000000e+00
    endloop
  endfacet
  facet normal 8.134738e-03 -5.799585e-03 -9.999500e-01
    outer loop
      vertex 4.169989e-02 -2.758839e-02 0.000000e+00
      vertex 1.242764e-01 -8.399622e-02 1.000000e-03
      vertex 1.167054e-01 -9.423300e-02 1.000000e-03
    endloop
  endfacet
  facet normal 8.451316e-03 -5.331192e-03 -9.999500e-01
    outer loop
      vertex 4.169989e-02 -2.758839e-02 0.000000e+00
      vertex 1.309521e-01 -7.315424e-02 1.000000e-03
      vertex 1.242764e-01 -8.399622e-02 1.000000e-03
    endloop
  endfacet
  facet normal 8.707765e-03 -4.879487e-03 -9.999500e-01
    outer loop
      vertex 4.527241e-02 -2.122283e-02 0.000000e+00
      vertex 1.309521e-01 -7.315424e-02 1.000000e-03
      vertex 4.169989e-02 -2.758839e-02 0.000000e+00
    endloop
  endfacet
  facet normal 8.965188e-03 -4.413289e-03 -9.999500e-01
    outer loop
      vertex 4.527241e-02 -2.122283e-02 0.000000e+00
      vertex 1.366843e-01 -6.178519e-02 1.000000e-03
      vertex 1.309521e-01 -7.315424e-02 1.000000e-03
    endloop
  endfacet
  facet normal 9.198054e-03 -3.898131e-03 -9.999500e-01
    outer loop
      vertex 4.527241e-02 -2.122283e-02 0.000000e+00
      vertex 1.414316e-01 -4.997097e-02 1.000000e-03
      vertex 1.366843e-01 -6.178519e-02 1.000000e-03
    endloop
  endfacet
  facet normal 9.352620e-03 -3.485478e-03 -9.999500e-01
    outer loop
      vertex 4.788003e-02 -1.440495e-02 0.000000e+00
      vertex 1.414316e-01 -4.997097e-02 1.000000e-03
      vertex 4.527241e-02 -2.122283e-02 0.000000e+00
    endloop
  endfacet
  facet normal 9.560225e-03 -2.910577e-03 -9.999500e-01
    outer loop
      vertex 4.788003e-02 -1.440495e-02 0.000000e+00
      vertex 1.451599e-01 -3.779671e-02 1.000000e-03
      vertex 1.414316e-01 -4.997097e-02 1.000000e-03
    endloop
  endfacet
  facet normal 9.715104e-03 -2.285480e-03 -9.999500e-01
    outer loop
      vertex 4.946717e-02 -7.280058e-03 0.000000e+00
      vertex 1.451599e-01 -3.779671e-02 1.000000e-03
      vertex 4.788003e-02 -1.440495e-02 0.000000e+00
    endloop
  endfacet
  facet normal 9.808484e-03 -1.888506e-03 -9.999500e-01
    outer loop
      vertex 4.946717e-02 -7.280058e-03 0.000000e+00
      vertex 1.478424e-01 -2.535012e-02 1.000000e-03
      vertex 1.451599e-01 -3.779671e-02 1.000000e-03
    endloop
  endfacet
  facet normal 9.904027e-03 -1.331293e-03 -9.999500e-01
    outer loop
      vertex 4.946717e-02 -7.280058e-03 0.000000e+00
      vertex 1.494596e-01 -1.272089e-02 1.000000e-03
      vertex 1.478424e-01 -2.535012e-02 1.000000e-03
    endloop
  endfacet
  facet normal 9.951972e-03 -7.679852e-04 -9.999500e-01
    outer loop
      vertex 5.000000e-02 0.000000e+00 0.000000e+00
      vertex 1.494596e-01 -1.272089e-02 1.000000e-03
      vertex 4.946717e-02 -7.280058e-03 0.000000e+00
    endloop
  endfacet
  facet normal 9.987492e-03 -2.826723e-04 -9.999500e-01
    outer loop
      vertex 5.000000e-02 0.000000e+00 0.000000e+00
      vertex 1.500000e-01 0.000000e+00 1.000000e-03
      vertex 1.494596e-01 -1.272089e-02 1.000000e-03
    endloop
  endfacet
  facet normal 9.987492e-03 2.826723e-04 -9.999500e-01
    outer loop
      vertex 1.494596e-01 1.272089e-02 1.000000e-03
      vertex 1.500000e-01 0.000000e+00 1.000000e-03
      vertex 5.000000e-02 0.000000e+00 0.000000e+00
    endloop
  endfacet
  facet normal 0.000000e+00 0.000000e+00 -1.000000e+00
    outer loop
      vertex 5.468560e-03 4.970005e-02 0.000000e+00
      vertex -9.081842e-03 4.916828e-02 0.000000e+00
      vertex -1.826101e-03 4.996664e-02 0.000000e+00
    endloop
  endfacet
  facet normal 0.000000e+00 0.000000e+00 -1.000000e+00
    outer loop
      vertex 1.264667e-02 4.837419e-02 0.000000e+00
      vertex -9.081842e-03 4.916828e-02 0.000000e+00
      vertex 5.468560e-03 4.970005e-02 0.000000e+00
    endloop
  endfacet
  facet normal 0.000000e+00 0.000000e+00 -1.000000e+00
    outer loop
      vertex 1.264667e-02 4.837419e-02 0.000000e+00
      vertex -1.614402e-02 4.732199e-02 0.000000e+00
      vertex -9.081842e-03 4.916828e-02 0.000000e+00
    endloop
  endfacet
  facet normal 0.000000e+00 0.000000e+00 -1.000000e+00
    outer loop
      vertex 1.955524e-02 4.601731e-02 0.000000e+00
      vertex -1.614402e-02 4.732199e-02 0.000000e+00
      vertex 1.264667e-02 4.837419e-02 0.000000e+00
    endloop
  endfacet
  facet normal 0.000000e+00 0.000000e+00 -1.000000e+00
    outer loop
      vertex 1.955524e-02 4.601731e-02 0.000000e+00
      vertex -2.286212e-02 4.446711e-02 0.000000e+00
      vertex -1.614402e-02 4.732199e-02 0.000000e+00
    endloop
  endfacet
  facet normal 0.000000e+00 0.000000e+00 -1.000000e+00
    outer loop
      vertex 2.604702e-02 4.267965e-02 0.000000e+00
      vertex -2.286212e-02 4.446711e-02 0.000000e+00
      vertex 1.955524e-02 4.601731e-02 0.000000e+00
    endloop
  endfacet
  facet normal 0.000000e+00 0.000000e+00 -1.000000e+00
    outer loop
      vertex 2.604702e-02 4.267965e-02 0.000000e+00
      vertex -2.909295e-02 4.066449e-02 0.000000e+00
      vertex -2.286212e-02 4.446711e-02 0.000000e+00
    endloop
  endfacet
  facet normal 0.000000e+00 0.000000e+00 -1.000000e+00
    outer loop
      vertex 3.198365e-02 3.843236e-02 0.000000e+00
      vertex -2.909295e-02 4.066449e-02 0.000000e+00
      vertex 2.604702e-02 4.267965e-02 0.000000e+00
    endloop
  endfacet
  facet normal 0.000000e+00 0.000000e+00 -1.000000e+00
    outer loop
      vertex 3.198365e-02 3.843236e-02 0.000000e+00
      vertex -3.470371e-02 3.599517e-02 0.000000e+00
      vertex -2.909295e-02 4.066449e-02 0.000000e+00
    endloop
  endfacet
  facet normal 0.000000e+00 0.000000e+00 -1.000000e+00
    outer loop
      vertex 3.723861e-02 3.336594e-02 0.000000e+00
      vertex -3.470371e-02 3.599517e-02 0.000000e+00
      vertex 3.198365e-02 3.843236e-02 0.000000e+00
    endloop
  endfacet
  facet normal 0.000000e+00 0.000000e+00 -1.000000e+00
    outer loop
      vertex 3.723861e-02 3.336594e-02 0.000000e+00
      vertex -3.957482e-02 3.055869e-02 0.000000e+00
      vertex -3.470371e-02 3.599517e-02 0.000000e+00
    endloop
  endfacet
  facet normal 0.000000e+00 0.000000e+00 -1.000000e+00
    outer loop
      vertex 4.169989e-02 2.758839e-02 0.000000e+00
      vertex -3.957482e-02 3.055869e-02 0.000000e+00
      vertex 3.723861e-02 3.336594e-02 0.000000e+00
    endloop
  endfacet
  facet normal 0.000000e+00 0.000000e+00 -1.000000e+00
    outer loop
      vertex 4.169989e-02 2.758839e-02 0.000000e+00
      vertex -4.360247e-02 2.447089e-02 0.000000e+00
      vertex -3.957482e-02 3.055869e-02 0.000000e+00
    endloop
  endfacet
  facet normal 0.000000e+00 0.000000e+00 -1.000000e+00
    outer loop
      vertex 4.527241e-02 2.122283e-02 0.000000e+00
      vertex -4.360247e-02 2.447089e-02 0.000000e+00
      vertex 4.169989e-02 2.758839e-02 0.000000e+00
    endloop
  endfacet
  facet normal 0.000000e+00 0.000000e+00 -1.000000e+00
    outer loop
      vertex 4.527241e-02 2.122283e-02 0.000000e+00
      vertex -4.670081e-02 1.786155e-02 0.000000e+00
      vertex -4.360247e-02 2.447089e-02 0.000000e+00
    endloop
  endfacet
  facet normal 0.000000e+00 0.000000e+00 -1.000000e+00
    outer loop
      vertex 4.788003e-02 1.440495e-02 0.000000e+00
      vertex -4.670081e-02 1.786155e-02 0.000000e+00
      vertex 4.527241e-02 2.122283e-02 0.000000e+00
    endloop
  endfacet
  facet normal 0.000000e+00 0.000000e+00 -1.000000e+00
    outer loop
      vertex 4.788003e-02 1.440495e-02 0.000000e+00
      vertex -4.880379e-02 1.087151e-02 0.000000e+00
      vertex -4.670081e-02 1.786155e-02 0.000000e+00
    endloop
  endfacet
  facet normal 0.000000e+00 0.000000e+00 -1.000000e+00
    outer loop
      vertex 4.946717e-02 7.280058e-03 0.000000e+00
      vertex -4.880379e-02 1.087151e-02 0.000000e+00
      vertex 4.788003e-02 1.440495e-02 0.000000e+00
    endloop
  endfacet
  facet normal 0.000000e+00 0.000000e+00 -1.000000e+00
    outer loop
      vertex 4.946717e-02 7.280058e-03 0.000000e+00
      vertex -4.986661e-02 3.649766e-03 0.000000e+00
      vertex -4.880379e-02 1.087151e-02 0.000000e+00
    endloop
  endfacet
  facet normal 0.000000e+00 0.000000e+00 -1.000000e+00
    outer loop
      vertex 5.000000e-02 0.000000e+00 0.000000e+00
      vertex -4.986661e-02 3.649766e-03 0.000000e+00
      vertex 4.946717e-02 7.280058e-03 0.000000e+00
    endloop
  endfacet
  facet normal 0.000000e+00 0.000000e+00 -1.000000e+00
    outer loop
      vertex 5.468560e-03 -4.970005e-02 0.000000e+00
      vertex -1.826101e-03 -4.996664e-02 0.000000e+00
      vertex -9.081842e-03 -4.916828e-02 0.000000e+00
    endloop
  endfacet
  facet normal 0.000000e+00 0.000000e+00 -1.000000e+00
    outer loop
      vertex 5.000000e-02 0.000000e+00 0.000000e+00
      vertex -5.000000e-02 6.123234e-18 0.000000e+00
      vertex -4.986661e-02 3.649766e-03 0.000000e+00
    endloop
  endfacet
  facet normal 0.000000e+00 0.000000e+00 -1.000000e+00
    outer loop
      vertex 5.000000e-02 0.000000e+00 0.000000e+00
      vertex -4.986661e-02 -3.649766e-03 0.000000e+00
      vertex -5.000000e-02 6.123234e-18 0.000000e+00
    endloop
  endfacet
  facet normal 0.000000e+00 0.000000e+00 -1.000000e+00
    outer loop
      vertex 4.946717e-02 -7.280058e-03 0.000000e+00
      vertex -4.986661e-02 -3.649766e-03 0.000000e+00
      vertex 5.000000e-02 0.000000e+00 0.000000e+00
    endloop
  endfacet
  facet normal 0.000000e+00 0.000000e+00 -1.000000e+00
    outer loop
      vertex 4.946717e-02 -7.280058e-03 0.000000e+00
      vertex -4.880379e-02 -1.087151e-02 0.000000e+00
      vertex -4.986661e-02 -3.649766e-03 0.000000e+00
    endloop
  endfacet
  facet normal 0.000000e+00 0.000000e+00 -1.000000e+00
    outer loop
      vertex 4.788003e-02 -1.440495e-02 0.000000e+00
      vertex -4.880379e-02 -1.087151e-02 0.000000e+00
      vertex 4.946717e-02 -7.280058e-03 0.000000e+00
    endloop
  endfacet
  facet normal 0.000000e+00 0.000000e+00 -1.000000e+00
    outer loop
      vertex 4.788003e-02 -1.440495e-02 0.000000e+00
      vertex -4.670081e-02 -1.786155e-02 0.000000e+00
      vertex -4.880379e-02 -1.087151e-02 0.000000e+00
    endloop
  endfacet
  facet normal 0.000000e+00 0.000000e+00 -1.000000e+00
    outer loop
      vertex 4.527241e-02 -2.122283e-02 0.000000e+00
      vertex -4.670081e-02 -1.786155e-02 0.000000e+00
      vertex 4.788003e-02 -1.440495e-02 0.000000e+00
    endloop
  endfacet
  facet normal 0.000000e+00 0.000000e+00 -1.000000e+00
    outer loop
      vertex 4.527241e-02 -2.122283e-02 0.000000e+00
      vertex -4.360247e-02 -2.447089e-02 0.000000e+00
      vertex -4.670081e-02 -1.786155e-02 0.000000e+00
    endloop
  endfacet
  facet normal 0.000000e+00 0.000000e+00 -1.000000e+00
    outer loop
      vertex 4.169989e-02 -2.758839e-02 0.000000e+00
      vertex -4.360247e-02 -2.447089e-02 0.000000e+00
      vertex 4.527241e-02 -2.122283e-02 0.000000e+00
    endloop
  endfacet
  facet normal 0.000000e+00 0.000000e+00 -1.000000e+00
    outer loop
      vertex 4.169989e-02 -2.758839e-02 0.000000e+00
      vertex -3.957482e-02 -3.055869e-02 0.000000e+00
      vertex -4.360247e-02 -2.447089e-02 0.000000e+00
    endloop
  endfacet
  facet normal 0.000000e+00 0.000000e+00 -1.000000e+00
    outer loop
      vertex 3.723861e-02 -3.336594e-02 0.000000e+00
      vertex -3.957482e-02 -3.055869e-02 0.000000e+00
      vertex 4.169989e-02 -2.758839e-02 0.000000e+00
    endloop
  endfacet
  facet normal 0.000000e+00 0.000000e+00 -1.000000e+00
    outer loop
      vertex 3.723861e-02 -3.336594e-02 0.000000e+00
      vertex -3.470371e-02 -3.599517e-02 0.000000e+00
      vertex -3.957482e-02 -3.055869e-02 0.000000e+00
    endloop
  endfacet
  facet normal 0.000000e+00 0.000000e+00 -1.000000e+00
    outer loop
      vertex 3.198365e-02 -3.843236e-02 0.000000e+00
      vertex -3.470371e-02 -3.599517e-02 0.000000e+00
      vertex 3.723861e-02 -3.336594e-02 0.000000e+00
    endloop
  endfacet
  facet normal 0.000000e+00 0.000000e+00 -1.000000e+00
    outer loop
      vertex 3.198365e-02 -3.843236e-02 0.000000e+00
      vertex -2.909295e-02 -4.066449e-02 0.000000e+00
      vertex -3.470371e-02 -3.599517e-02 0.000000e+00
    endloop
  endfacet
  facet normal 0.000000e+00 0.000000e+00 -1.000000e+00
    outer loop
      vertex 2.604702e-02 -4.267965e-02 0.000000e+00
      vertex -2.909295e-02 -4.066449e-02 0.000000e+00
      vertex 3.198365e-02 -3.843236e-02 0.000000e+00
    endloop
  endfacet
  facet normal 0.000000e+00 0.000000e+00 -1.000000e+00
    outer loop
      vertex 2.604702e-02 -4.267965e-02 0.000000e+00
      vertex -2.286212e-02 -4.446711e-02 0.000000e+00
      vertex -2.909295e-02 -4.066449e-02 0.000000e+00
    endloop
  endfacet
  facet normal 0.000000e+00 0.000000e+00 -1.000000e+00
    outer loop
      vertex 1.955524e-02 -4.601731e-02 0.000000e+00
      vertex -2.286212e-02 -4.446711e-02 0.000000e+00
      vertex 2.604702e-02 -4.267965e-02 0.000000e+00
    endloop
  endfacet
  facet normal 0.000000e+00 0.000000e+00 -1.000000e+00
    outer loop
      vertex 1.955524e-02 -4.601731e-02 0.000000e+00
      vertex -1.614402e-02 -4.732199e-02 0.000000e+00
      vertex -2.286212e-02 -4.446711e-02 0.000000e+00
    endloop
  endfacet
  facet normal 0.000000e+00 0.000000e+00 -1.000000e+00
    outer loop
      vertex 1.264667e-02 -4.837419e-02 0.000000e+00
      vertex -1.614402e-02 -4.732199e-02 0.000000e+00
      vertex 1.955524e-02 -4.601731e-02 0.000000e+00
    endloop
  endfacet
  facet normal 0.000000e+00 0.000000e+00 -1.000000e+00
    outer loop
      vertex 1.264667e-02 -4.837419e-02 0.000000e+00
      vertex -9.081842e-03 -4.916828e-02 0.000000e+00
      vertex -1.614402e-02 -4.732199e-02 0.000000e+00
    endloop
  endfacet
  facet normal 0.000000e+00 0.000000e+00 -1.000000e+00
    outer loop
      vertex 5.468560e-03 -4.970005e-02 0.000000e+00
      vertex -9.081842e-03 -4.916828e-02 0.000000e+00
      vertex 1.264667e-02 -4.837419e-02 0.000000e+00
    endloop
  endfacet
endsolid component1:taper
