solid cavity:shell
  facet normal 0.000000e+00 0.000000e+00 1.000000e+00
    outer loop
      vertex 1.500000e-01 1.500000e-01 -1.000000e-01
      vertex 6.000000e-02 6.000000e-02 -1.000000e-01
      vertex 1.500000e-01 -1.500000e-01 -1.000000e-01
    endloop
  endfacet
  facet normal 0.000000e+00 0.000000e+00 1.000000e+00
    outer loop
      vertex -1.500000e-01 1.500000e-01 -1.000000e-01
      vertex 6.000000e-02 6.000000e-02 -1.000000e-01
      vertex 1.500000e-01 1.500000e-01 -1.000000e-01
    endloop
  endfacet
  facet normal 0.000000e+00 0.000000e+00 1.000000e+00
    outer loop
      vertex -1.500000e-01 1.500000e-01 -1.000000e-01
      vertex -6.000000e-02 6.000000e-02 -1.000000e-01
      vertex 6.000000e-02 6.000000e-02 -1.000000e-01
    endloop
  endfacet
  facet normal 0.000000e+00 0.000000e+00 1.000000e+00
    outer loop
      vertex -1.500000e-01 -1.500000e-01 -1.000000e-01
      vertex -6.000000e-02 6.000000e-02 -1.000000e-01
      vertex -1.500000e-01 1.500000e-01 -1.000000e-01
    endloop
  endfacet
  facet normal 0.000000e+00 0.000000e+00 1.000000e+00
    outer loop
      vertex -1.500000e-01 -1.500000e-01 -1.000000e-01
      vertex -6.000000e-02 -6.000000e-02 -1.000000e-01
      vertex -6.000000e-02 6.000000e-02 -1.000000e-01
    endloop
  endfacet
  facet normal 0.000000e+00 0.000000e+00 1.000000e+00
    outer loop
      vertex 1.500000e-01 -1.500000e-01 -1.000000e-01
      vertex -6.000000e-02 -6.000000e-02 -1.000000e-01
      vertex -1.500000e-01 -1.500000e-01 -1.000000e-01
    endloop
  endfacet
  facet normal 0.000000e+00 0.000000e+00 1.000000e+00
    outer loop
      vertex 1.500000e-01 -1.500000e-01 -1.000000e-01
      vertex 6.000000e-02 -6.000000e-02 -1.000000e-01
      vertex -6.000000e-02 -6.000000e-02 -1.000000e-01
    endloop
  endfacet
  facet normal 0.000000e+00 0.000000e+00 1.000000e+00
    outer loop
      vertex 6.000000e-02 6.000000e-02 -1.000000e-01
      vertex 6.000000e-02 -6.000000e-02 -1.000000e-01
      vertex 1.500000e-01 -1.500000e-01 -1.000000e-01
    endloop
  endfacet
  facet normal -0.000000e+00 -0.000000e+00 -1.000000e+00
    outer loop
      vertex -1.500000e-01 1.500000e-01 1.000000e-01
      vertex -6.000000e-02 6.000000e-02 1.000000e-01
      vertex -1.500000e-01 -1.500000e-01 1.000000e-01
    endloop
  endfacet
  facet normal -0.000000e+00 -0.000000e+00 -1.000000e+00
    outer loop
      vertex 1.500000e-01 1.500000e-01 1.000000e-01
      vertex -6.000000e-02 6.000000e-02 1.000000e-01
      vertex -1.500000e-01 1.500000e-01 1.000000e-01
    endloop
  endfacet
  facet normal -0.000000e+00 -0.000000e+00 -1.000000e+00
    outer loop
      vertex 1.500000e-01 1.500000e-01 1.000000e-01
      vertex 6.000000e-02 6.000000e-02 1.000000e-01
      vertex -6.000000e-02 6.000000e-02 1.000000e-01
    endloop
  endfacet
  facet normal -0.000000e+00 -0.000000e+00 -1.000000e+00
    outer loop
      vertex 1.500000e-01 -1.500000e-01 1.000000e-01
      vertex 6.000000e-02 6.000000e-02 1.000000e-01
      vertex 1.500000e-01 1.500000e-01 1.000000e-01
    endloop
  endfacet
  facet normal -0.000000e+00 -0.000000e+00 -1.000000e+00
    outer loop
      vertex 1.500000e-01 -1.500000e-01 1.000000e-01
      vertex 6.000000e-02 -6.000000e-02 1.000000e-01
      vertex 6.000000e-02 6.000000e-02 1.000000e-01
    endloop
  endfacet
  facet normal -0.000000e+00 -0.000000e+00 -1.000000e+00
    outer loop
      vertex -1.500000e-01 -1.500000e-01 1.000000e-01
      vertex 6.000000e-02 -6.000000e-02 1.000000e-01
      vertex 1.500000e-01 -1.500000e-01 1.000000e-01
    endloop
  endfacet
  facet normal -0.000000e+00 -0.000000e+00 -1.000000e+00
    outer loop
      vertex -1.500000e-01 -1.500000e-01 1.000000e-01
      vertex -6.000000e-02 -6.000000e-02 1.000000e-01
      vertex 6.000000e-02 -6.000000e-02 1.000000e-01
    endloop
  endfacet
  facet normal -0.000000e+00 -0.000000e+00 -1.000000e+00
    outer loop
      vertex -6.000000e-02 6.000000e-02 1.000000e-01
      vertex -6.000000e-02 -6.000000e-02 1.000000e-01
      vertex -1.500000e-01 -1.500000e-01 1.000000e-01
    endloop
  endfacet
  facet normal -0.000000e+00 -0.000000e+00 -1.000000e+00
    outer loop
      vertex -1.800000e-01 1.800000e-01 -1.300000e-01
      vertex -9.000000e-02 9.000000e-02 -1.300000e-01
      vertex -1.800000e-01 -1.800000e-01 -1.300000e-01
    endloop
  endfacet
  facet normal -0.000000e+00 -0.000000e+00 -1.000000e+00
    outer loop
      vertex 1.800000e-01 1.800000e-01 -1.300000e-01
      vertex -9.000000e-02 9.000000e-02 -1.300000e-01
      vertex -1.800000e-01 1.800000e-01 -1.300000e-01
    endloop
  endfacet
  facet normal -0.000000e+00 -0.000000e+00 -1.000000e+00
    outer loop
      vertex 1.800000e-01 1.800000e-01 -1.300000e-01
      vertex 9.000000e-02 9.000000e-02 -1.300000e-01
      vertex -9.000000e-02 9.000000e-02 -1.300000e-01
    endloop
  endfacet
  facet normal -0.000000e+00 -0.000000e+00 -1.000000e+00
    outer loop
      vertex 1.800000e-01 -1.800000e-01 -1.300000e-01
      vertex 9.000000e-02 9.000000e-02 -1.300000e-01
      vertex 1.800000e-01 1.800000e-01 -1.300000e-01
    endloop
  endfacet
  facet normal -0.000000e+00 -0.000000e+00 -1.000000e+00
    outer loop
      vertex 1.800000e-01 -1.800000e-01 -1.300000e-01
      vertex 9.000000e-02 -9.000000e-02 -1.300000e-01
      vertex 9.000000e-02 9.000000e-02 -1.300000e-01
    endloop
  endfacet
  facet normal -0.000000e+00 -0.000000e+00 -1.000000e+00
    outer loop
      vertex -1.800000e-01 -1.800000e-01 -1.300000e-01
      vertex 9.000000e-02 -9.000000e-02 -1.300000e-01
      vertex 1.800000e-01 -1.800000e-01 -1.300000e-01
    endloop
  endfacet
  facet normal -0.000000e+00 -0.000000e+00 -1.000000e+00
    outer loop
      vertex -1.800000e-01 -1.800000e-01 -1.300000e-01
      vertex -9.000000e-02 -9.000000e-02 -1.300000e-01
      vertex 9.000000e-02 -9.000000e-02 -1.300000e-01
    endloop
  endfacet
  facet normal -0.000000e+00 -0.000000e+00 -1.000000e+00
    outer loop
      vertex -9.000000e-02 9.000000e-02 -1.300000e-01
      vertex -9.000000e-02 -9.000000e-02 -1.300000e-01
      vertex -1.800000e-01 -1.800000e-01 -1.300000e-01
    endloop
  endfacet
  facet normal 0.000000e+00 0.000000e+00 1.000000e+00
    outer loop
      vertex 1.800000e-01 1.800000e-01 1.300000e-01
      vertex 9.000000e-02 9.000000e-02 1.300000e-01
      vertex 1.800000e-01 -1.800000e-01 1.300000e-01
    endloop
  endfacet
  facet normal 0.000000e+00 0.000000e+00 1.000000e+00
    outer loop
      vertex -1.800000e-01 1.800000e-01 1.300000e-01
      vertex 9.000000e-02 9.000000e-02 1.300000e-01
      vertex 1.800000e-01 1.800000e-01 1.300000e-01
    endloop
  endfacet
  facet normal 0.000000e+00 0.000000e+00 1.000000e+00
    outer loop
      vertex -1.800000e-01 1.800000e-01 1.300000e-01
      vertex -9.000000e-02 9.000000e-02 1.300000e-01
      vertex 9.000000e-02 9.000000e-02 1.300000e-01
    endloop
  endfacet
  facet normal 0.000000e+00 0.000000e+00 1.000000e+00
    outer loop
      vertex -1.800000e-01 -1.800000e-01 1.300000e-01
      vertex -9.000000e-02 9.000000e-02 1.300000e-01
      vertex -1.800000e-01 1.800000e-01 1.300000e-01
    endloop
  endfacet
  facet normal 0.000000e+00 0.000000e+00 1.000000e+00
    outer loop
      vertex -1.800000e-01 -1.800000e-01 1.300000e-01
      vertex -9.000000e-02 -9.000000e-02 1.300000e-01
      vertex -9.000000e-02 9.000000e-02 1.300000e-01
    endloop
  endfacet
  facet normal 0.000000e+00 0.000000e+00 1.000000e+00
    outer loop
      vertex 1.800000e-01 -1.800000e-01 1.300000e-01
      vertex -9.000000e-02 -9.000000e-02 1.300000e-01
      vertex -1.800000e-01 -1.800000e-01 1.300000e-01
    endloop
  endfacet
  facet normal 0.000000e+00 0.000000e+00 1.000000e+00
    outer loop
      vertex 1.800000e-01 -1.800000e-01 1.300000e-01
      vertex 9.000000e-02 -9.000000e-02 1.300000e-01
      vertex -9.000000e-02 -9.000000e-02 1.300000e-01
    endloop
  endfacet
  facet normal 0.000000e+00 0.000000e+00 1.000000e+00
    outer loop
      vertex 9.000000e-02 9.000000e-02 1.300000e-01
      vertex 9.000000e-02 -9.000000e-02 1.300000e-01
      vertex 1.800000e-01 -1.800000e-01 1.300000e-01
    endloop
  endfacet
  facet normal -0.000000e+00 -0.000000e+00 -1.000000e+00
    outer loop
      vertex -6.000000e-02 -6.000000e-02 -3.800000e-01
      vertex -9.000000e-02 -9.000000e-02 -3.800000e-01
      vertex -6.000000e-02 6.000000e-02 -3.800000e-01
    endloop
  endfacet
  facet normal -0.000000e+00 -0.000000e+00 -1.000000e+00
    outer loop
      vertex 6.000000e-02 -6.000000e-02 -3.800000e-01
      vertex -9.000000e-02 -9.000000e-02 -3.800000e-01
      vertex -6.000000e-02 -6.000000e-02 -3.800000e-01
    endloop
  endfacet
  facet normal -0.000000e+00 -0.000000e+00 -1.000000e+00
    outer loop
      vertex 6.000000e-02 -6.000000e-02 -3.800000e-01
      vertex 9.000000e-02 -9.000000e-02 -3.800000e-01
      vertex -9.000000e-02 -9.000000e-02 -3.800000e-01
    endloop
  endfacet
  facet normal -0.000000e+00 -0.000000e+00 -1.000000e+00
    outer loop
      vertex 6.000000e-02 6.000000e-02 -3.800000e-01
      vertex 9.000000e-02 -9.000000e-02 -3.800000e-01
      vertex 6.000000e-02 -6.000000e-02 -3.800000e-01
    endloop
  endfacet
  facet normal -0.000000e+00 -0.000000e+00 -1.000000e+00
    outer loop
      vertex 6.000000e-02 6.000000e-02 -3.800000e-01
      vertex 9.000000e-02 9.000000e-02 -3.800000e-01
      vertex 9.000000e-02 -9.000000e-02 -3.800000e-01
    endloop
  endfacet
  facet normal -0.000000e+00 -0.000000e+00 -1.000000e+00
    outer loop
      vertex -6.000000e-02 6.000000e-02 -3.800000e-01
      vertex 9.000000e-02 9.000000e-02 -3.800000e-01
      vertex 6.000000e-02 6.000000e-02 -3.800000e-01
    endloop
  endfacet
  facet normal -0.000000e+00 -0.000000e+00 -1.000000e+00
    outer loop
      vertex -6.000000e-02 6.000000e-02 -3.800000e-01
      vertex -9.000000e-02 9.000000e-02 -3.800000e-01
      vertex 9.000000e-02 9.000000e-02 -3.800000e-01
    endloop
  endfacet
  facet normal -0.000000e+00 -0.000000e+00 -1.000000e+00
    outer loop
      vertex -9.000000e-02 -9.000000e-02 -3.800000e-01
      vertex -9.000000e-02 9.000000e-02 -3.800000e-01
      vertex -6.000000e-02 6.000000e-02 -3.800000e-01
    endloop
  endfacet
  facet normal 0.000000e+00 0.000000e+00 1.000000e+00
    outer loop
      vertex 6.000000e-02 -6.000000e-02 3.800000e-01
      vertex 9.000000e-02 -9.000000e-02 3.800000e-01
      vertex 6.000000e-02 6.000000e-02 3.800000e-01
    endloop
  endfacet
  facet normal 0.000000e+00 0.000000e+00 1.000000e+00
    outer loop
      vertex -6.000000e-02 -6.000000e-02 3.800000e-01
      vertex 9.000000e-02 -9.000000e-02 3.800000e-01
      vertex 6.000000e-02 -6.000000e-02 3.800000e-01
    endloop
  endfacet
  facet normal 0.000000e+00 0.000000e+00 1.000000e+00
    outer loop
      vertex -6.000000e-02 -6.000000e-02 3.800000e-01
      vertex -9.000000e-02 -9.000000e-02 3.800000e-01
      vertex 9.000000e-02 -9.000000e-02 3.800000e-01
    endloop
  endfacet
  facet normal 0.000000e+00 0.000000e+00 1.000000e+00
    outer loop
      vertex -6.000000e-02 6.000000e-02 3.800000e-01
      vertex -9.000000e-02 -9.000000e-02 3.800000e-01
      vertex -6.000000e-02 -6.000000e-02 3.800000e-01
    endloop
  endfacet
  facet normal 0.000000e+00 0.000000e+00 1.000000e+00
    outer loop
      vertex -6.000000e-02 6.000000e-02 3.800000e-01
      vertex -9.000000e-02 9.000000e-02 3.800000e-01
      vertex -9.000000e-02 -9.000000e-02 3.800000e-01
    endloop
  endfacet
  facet normal 0.000000e+00 0.000000e+00 1.000000e+00
    outer loop
      vertex 6.000000e-02 6.000000e-02 3.800000e-01
      vertex -9.000000e-02 9.000000e-02 3.800000e-01
      vertex -6.000000e-02 6.000000e-02 3.800000e-01
    endloop
  endfacet
  facet normal 0.000000e+00 0.000000e+00 1.000000e+00
    outer loop
      vertex 6.000000e-02 6.000000e-02 3.800000e-01
      vertex 9.000000e-02 9.000000e-02 3.800000e-01
      vertex -9.000000e-02 9.000000e-02 3.800000e-01
    endloop
  endfacet
  facet normal 0.000000e+00 0.000000e+00 1.000000e+00
    outer loop
      vertex 9.000000e-02 -9.000000e-02 3.800000e-01
      vertex 9.000000e-02 9.000000e-02 3.800000e-01
      vertex 6.000000e-02 6.000000e-02 3.800000e-01
    endloop
  endfacet
  facet normal -1.000000e+00 0.000000e+00 0.000000e+00
    outer loop
      vertex 1.500000e-01 -1.500000e-01 -1.000000e-01
      vertex 1.500000e-01 -1.500000e-01 1.000000e-01
      vertex 1.500000e-01 1.500000e-01 1.000000e-01
    endloop
  endfacet
  facet normal -1.000000e+00 0.000000e+00 0.000000e+00
    outer loop
      vertex 1.500000e-01 -1.500000e-01 -1.000000e-01
      vertex 1.500000e-01 1.500000e-01 1.000000e-01
      vertex 1.500000e-01 1.500000e-01 -1.000000e-01
    endloop
  endfacet
  facet normal 0.000000e+00 -1.000000e+00 0.000000e+00
    outer loop
      vertex 1.500000e-01 1.500000e-01 -1.000000e-01
      vertex 1.500000e-01 1.500000e-01 1.000000e-01
      vertex -1.500000e-01 1.500000e-01 1.000000e-01
    endloop
  endfacet
  facet normal 0.000000e+00 -1.000000e+00 0.000000e+00
    outer loop
      vertex 1.500000e-01 1.500000e-01 -1.000000e-01
      vertex -1.500000e-01 1.500000e-01 1.000000e-01
      vertex -1.500000e-01 1.500000e-01 -1.000000e-01
    endloop
  endfacet
  facet normal 1.000000e+00 0.000000e+00 0.000000e+00
    outer loop
      vertex -1.500000e-01 1.500000e-01 -1.000000e-01
      vertex -1.500000e-01 1.500000e-01 1.000000e-01
      vertex -1.500000e-01 -1.500000e-01 1.000000e-01
    endloop
  endfacet
  facet normal 1.000000e+00 0.000000e+00 0.000000e+00
    outer loop
      vertex -1.500000e-01 1.500000e-01 -1.000000e-01
      vertex -1.500000e-01 -1.500000e-01 1.000000e-01
      vertex -1.500000e-01 -1.500000e-01 -1.000000e-01
    endloop
  endfacet
  facet normal 0.000000e+00 1.000000e+00 -0.000000e+00
    outer loop
      vertex -1.500000e-01 -1.500000e-01 -1.000000e-01
      vertex -1.500000e-01 -1.500000e-01 1.000000e-01
      vertex 1.500000e-01 -1.500000e-01 1.000000e-01
    endloop
  endfacet
  facet normal 0.000000e+00 1.000000e+00 -0.000000e+00
    outer loop
      vertex -1.500000e-01 -1.500000e-01 -1.000000e-01
      vertex 1.500000e-01 -1.500000e-01 1.000000e-01
      vertex 1.500000e-01 -1.500000e-01 -1.000000e-01
    endloop
  endfacet
  facet normal -1.000000e+00 0.000000e+00 0.000000e+00
    outer loop
      vertex 6.000000e-02 6.000000e-02 1.000000e-01
      vertex 6.000000e-02 -6.000000e-02 1.000000e-01
      vertex 6.000000e-02 -6.000000e-02 3.800000e-01
    endloop
  endfacet
  facet normal -1.000000e+00 0.000000e+00 0.000000e+00
    outer loop
      vertex 6.000000e-02 6.000000e-02 1.000000e-01
      vertex 6.000000e-02 -6.000000e-02 3.800000e-01
      vertex 6.000000e-02 6.000000e-02 3.800000e-01
    endloop
  endfacet
  facet normal 0.000000e+00 -1.000000e+00 0.000000e+00
    outer loop
      vertex -6.000000e-02 6.000000e-02 1.000000e-01
      vertex 6.000000e-02 6.000000e-02 1.000000e-01
      vertex 6.000000e-02 6.000000e-02 3.800000e-01
    endloop
  endfacet
  facet normal 0.000000e+00 -1.000000e+00 0.000000e+00
    outer loop
      vertex -6.000000e-02 6.000000e-02 1.000000e-01
      vertex 6.000000e-02 6.000000e-02 3.800000e-01
      vertex -6.000000e-02 6.000000e-02 3.800000e-01
    endloop
  endfacet
  facet normal 0.000000e+00 1.000000e+00 -0.000000e+00
    outer loop
      vertex 6.000000e-02 -6.000000e-02 1.000000e-01
      vertex -6.000000e-02 -6.000000e-02 1.000000e-01
      vertex -6.000000e-02 -6.000000e-02 3.800000e-01
    endloop
  endfacet
  facet normal 0.000000e+00 1.000000e+00 -0.000000e+00
    outer loop
      vertex 6.000000e-02 -6.000000e-02 1.000000e-01
      vertex -6.000000e-02 -6.000000e-02 3.800000e-01
      vertex 6.000000e-02 -6.000000e-02 3.800000e-01
    endloop
  endfacet
  facet normal 0.000000e+00 1.000000e+00 -0.000000e+00
    outer loop
      vertex -6.000000e-02 -6.000000e-02 -1.000000e-01
      vertex 6.000000e-02 -6.000000e-02 -1.000000e-01
      vertex 6.000000e-02 -6.000000e-02 -3.800000e-01
    endloop
  endfacet
  facet normal 0.000000e+00 1.000000e+00 -0.000000e+00
    outer loop
      vertex -6.000000e-02 -6.000000e-02 -1.000000e-01
      vertex 6.000000e-02 -6.000000e-02 -3.800000e-01
      vertex -6.000000e-02 -6.000000e-02 -3.800000e-01
    endloop
  endfacet
  facet normal 1.000000e+00 0.000000e+00 0.000000e+00
    outer loop
      vertex -6.000000e-02 -6.000000e-02 1.000000e-01
      vertex -6.000000e-02 6.000000e-02 1.000000e-01
      vertex -6.000000e-02 6.000000e-02 3.800000e-01
    endloop
  endfacet
  facet normal 1.000000e+00 0.000000e+00 0.000000e+00
    outer loop
      vertex -6.000000e-02 -6.000000e-02 1.000000e-01
      vertex -6.000000e-02 6.000000e-02 3.800000e-01
      vertex -6.000000e-02 -6.000000e-02 3.800000e-01
    endloop
  endfacet
  facet normal 1.000000e+00 0.000000e+00 0.000000e+00
    outer loop
      vertex -6.000000e-02 6.000000e-02 -1.000000e-01
      vertex -6.000000e-02 -6.000000e-02 -1.000000e-01
      vertex -6.000000e-02 -6.000000e-02 -3.800000e-01
    endloop
  endfacet
  facet normal 1.000000e+00 0.000000e+00 0.000000e+00
    outer loop
      vertex -6.000000e-02 6.000000e-02 -1.000000e-01
      vertex -6.000000e-02 -6.000000e-02 -3.800000e-01
      vertex -6.000000e-02 6.000000e-02 -3.800000e-01
    endloop
  endfacet
  facet normal -1.000000e+00 0.000000e+00 0.000000e+00
    outer loop
      vertex 6.000000e-02 -6.000000e-02 -1.000000e-01
      vertex 6.000000e-02 6.000000e-02 -1.000000e-01
      vertex 6.000000e-02 6.000000e-02 -3.800000e-01
    endloop
  endfacet
  facet normal -1.000000e+00 0.000000e+00 0.000000e+00
    outer loop
      vertex 6.000000e-02 -6.000000e-02 -1.000000e-01
      vertex 6.000000e-02 6.000000e-02 -3.800000e-01
      vertex 6.000000e-02 -6.000000e-02 -3.800000e-01
    endloop
  endfacet
  facet normal 0.000000e+00 -1.000000e+00 0.000000e+00
    outer loop
      vertex 6.000000e-02 6.000000e-02 -1.000000e-01
      vertex -6.000000e-02 6.000000e-02 -1.000000e-01
      vertex -6.000000e-02 6.000000e-02 -3.800000e-01
    endloop
  endfacet
  facet normal 0.000000e+00 -1.000000e+00 0.000000e+00
    outer loop
      vertex 6.000000e-02 6.000000e-02 -1.000000e-01
      vertex -6.000000e-02 6.000000e-02 -3.800000e-01
      vertex 6.000000e-02 6.000000e-02 -3.800000e-01
    endloop
  endfacet
  facet normal 1.000000e+00 -0.000000e+00 -0.000000e+00
    outer loop
      vertex 1.800000e-01 -1.800000e-01 1.300000e-01
      vertex 1.800000e-01 -1.800000e-01 -1.300000e-01
      vertex 1.800000e-01 1.800000e-01 -1.300000e-01
    endloop
  endfacet
  facet normal 1.000000e+00 -0.000000e+00 -0.000000e+00
    outer loop
      vertex 1.800000e-01 -1.800000e-01 1.300000e-01
      vertex 1.800000e-01 1.800000e-01 -1.300000e-01
      vertex 1.800000e-01 1.800000e-01 1.300000e-01
    endloop
  endfacet
  facet normal -0.000000e+00 1.000000e+00 -0.000000e+00
    outer loop
      vertex 1.800000e-01 1.800000e-01 1.300000e-01
      vertex 1.800000e-01 1.800000e-01 -1.300000e-01
      vertex -1.800000e-01 1.800000e-01 -1.300000e-01
    endloop
  endfacet
  facet normal -0.000000e+00 1.000000e+00 -0.000000e+00
    outer loop
      vertex 1.800000e-01 1.800000e-01 1.300000e-01
      vertex -1.800000e-01 1.800000e-01 -1.300000e-01
      vertex -1.800000e-01 1.800000e-01 1.300000e-01
    endloop
  endfacet
  facet normal -1.000000e+00 -0.000000e+00 -0.000000e+00
    outer loop
      vertex -1.800000e-01 1.800000e-01 1.300000e-01
      vertex -1.800000e-01 1.800000e-01 -1.300000e-01
      vertex -1.800000e-01 -1.800000e-01 -1.300000e-01
    endloop
  endfacet
  facet normal -1.000000e+00 -0.000000e+00 -0.000000e+00
    outer loop
      vertex -1.800000e-01 1.800000e-01 1.300000e-01
      vertex -1.800000e-01 -1.800000e-01 -1.300000e-01
      vertex -1.800000e-01 -1.800000e-01 1.300000e-01
    endloop
  endfacet
  facet normal -0.000000e+00 -1.000000e+00 0.000000e+00
    outer loop
      vertex -1.800000e-01 -1.800000e-01 1.300000e-01
      vertex -1.800000e-01 -1.800000e-01 -1.300000e-01
      vertex 1.800000e-01 -1.800000e-01 -1.300000e-01
    endloop
  endfacet
  facet normal -0.000000e+00 -1.000000e+00 0.000000e+00
    outer loop
      vertex -1.800000e-01 -1.800000e-01 1.300000e-01
      vertex 1.800000e-01 -1.800000e-01 -1.300000e-01
      vertex 1.800000e-01 -1.800000e-01 1.300000e-01
    endloop
  endfacet
  facet normal 1.000000e+00 -0.000000e+00 -0.000000e+00
    outer loop
      vertex 9.000000e-02 -9.000000e-02 1.300000e-01
      vertex 9.000000e-02 9.000000e-02 1.300000e-01
      vertex 9.000000e-02 9.000000e-02 3.800000e-01
    endloop
  endfacet
  facet normal 1.000000e+00 -0.000000e+00 -0.000000e+00
    outer loop
      vertex 9.000000e-02 -9.000000e-02 1.300000e-01
      vertex 9.000000e-02 9.000000e-02 3.800000e-01
      vertex 9.000000e-02 -9.000000e-02 3.800000e-01
    endloop
  endfacet
  facet normal -0.000000e+00 1.000000e+00 -0.000000e+00
    outer loop
      vertex 9.000000e-02 9.000000e-02 1.300000e-01
      vertex -9.000000e-02 9.000000e-02 1.300000e-01
      vertex -9.000000e-02 9.000000e-02 3.800000e-01
    endloop
  endfacet
  facet normal -0.000000e+00 1.000000e+00 -0.000000e+00
    outer loop
      vertex 9.000000e-02 9.000000e-02 1.300000e-01
      vertex -9.000000e-02 9.000000e-02 3.800000e-01
      vertex 9.000000e-02 9.000000e-02 3.800000e-01
    endloop
  endfacet
  facet normal -0.000000e+00 -1.000000e+00 0.000000e+00
    outer loop
      vertex -9.000000e-02 -9.000000e-02 1.300000e-01
      vertex 9.000000e-02 -9.000000e-02 1.300000e-01
      vertex 9.000000e-02 -9.000000e-02 3.800000e-01
    endloop
  endfacet
  facet normal -0.000000e+00 -1.000000e+00 0.000000e+00
    outer loop
      vertex -9.000000e-02 -9.000000e-02 1.300000e-01
      vertex 9.000000e-02 -9.000000e-02 3.800000e-01
      vertex -9.000000e-02 -9.000000e-02 3.800000e-01
    endloop
  endfacet
  facet normal -0.000000e+00 -1.000000e+00 0.000000e+00
    outer loop
      vertex 9.000000e-02 -9.000000e-02 -1.300000e-01
      vertex -9.000000e-02 -9.000000e-02 -1.300000e-01
      vertex -9.000000e-02 -9.000000e-02 -3.800000e-01
    endloop
  endfacet
  facet normal -0.000000e+00 -1.000000e+00 0.000000e+00
    outer loop
      vertex 9.000000e-02 -9.000000e-02 -1.300000e-01
      vertex -9.000000e-02 -9.000000e-02 -3.800000e-01
      vertex 9.000000e-02 -9.000000e-02 -3.800000e-01
    endloop
  endfacet
  facet normal -1.000000e+00 -0.000000e+00 -0.000000e+00
    outer loop
      vertex -9.000000e-02 9.000000e-02 1.300000e-01
      vertex -9.000000e-02 -9.000000e-02 1.300000e-01
      vertex -9.000000e-02 -9.000000e-02 3.800000e-01
    endloop
  endfacet
  facet normal -1.000000e+00 -0.000000e+00 -0.000000e+00
    outer loop
      vertex -9.000000e-02 9.000000e-02 1.300000e-01
      vertex -9.000000e-02 -9.000000e-02 3.800000e-01
      vertex -9.000000e-02 9.000000e-02 3.800000e-01
    endloop
  endfacet
  facet normal -1.000000e+00 -0.000000e+00 -0.000000e+00
    outer loop
      vertex -9.000000e-02 -9.000000e-02 -1.300000e-01
      vertex -9.000000e-02 9.000000e-02 -1.300000e-01
      vertex -9.000000e-02 9.000000e-02 -3.800000e-01
    endloop
  endfacet
  facet normal -1.000000e+00 -0.000000e+00 -0.000000e+00
    outer loop
      vertex -9.000000e-02 -9.000000e-02 -1.300000e-01
      vertex -9.000000e-02 9.000000e-02 -3.800000e-01
      vertex -9.000000e-02 -9.000000e-02 -3.800000e-01
    endloop
  endfacet
  facet normal 1.000000e+00 -0.000000e+00 -0.000000e+00
    outer loop
      vertex 9.000000e-02 9.000000e-02 -1.300000e-01
      vertex 9.000000e-02 -9.000000e-02 -1.300000e-01
      vertex 9.000000e-02 -9.000000e-02 -3.800000e-01
    endloop
  endfacet
  facet normal 1.000000e+00 -0.000000e+00 -0.000000e+00
    outer loop
      vertex 9.000000e-02 9.000000e-02 -1.300000e-01
      vertex 9.000000e-02 -9.000000e-02 -3.800000e-01
      vertex 9.000000e-02 9.000000e-02 -3.800000e-01
    endloop
  endfacet
  facet normal -0.000000e+00 1.000000e+00 -0.000000e+00
    outer loop
      vertex -9.000000e-02 9.000000e-02 -1.300000e-01
      vertex 9.000000e-02 9.000000e-02 -1.300000e-01
      vertex 9.000000e-02 9.000000e-02 -3.800000e-01
    endloop
  endfacet
  facet normal -0.000000e+00 1.000000e+00 -0.000000e+00
    outer loop
      vertex -9.000000e-02 9.000000e-02 -1.300000e-01
      vertex 9.000000e-02 9.000000e-02 -3.800000e-01
      vertex -9.000000e-02 9.000000e-02 -3.800000e-01
    endloop
  endfacet
endsolid cavity:shell
